<svg width="541" height="89" viewBox="0 0 541 89" fill="none" xmlns="http://www.w3.org/2000/svg">
<path d="M0.742188 2.15625H28.5156L48.6719 51.4922H49.7266L69.8828 2.15625H97.6562V87H75.8594V37.0781H75.1562L55.8203 86.4141H42.4609L23.2422 36.7266H22.5391V87H0.742188V2.15625ZM190.703 44.5781C190.703 72.8203 172.656 88.1719 149.688 88.1719C126.484 88.1719 108.555 72.7031 108.555 44.5781C108.555 16.3359 126.484 0.984375 149.688 0.984375C172.656 0.984375 190.703 16.3359 190.703 44.5781ZM167.734 44.5781C167.734 28.9922 161.289 20.4375 149.688 20.4375C137.969 20.4375 131.523 28.9922 131.523 44.5781C131.523 60.1641 137.969 68.7188 149.688 68.7188C161.289 68.7188 167.734 60.1641 167.734 44.5781ZM201.602 2.15625H229.375L249.531 51.4922H250.586L270.742 2.15625H298.516V87H276.719V37.0781H276.016L256.68 86.4141H243.32L224.102 36.7266H223.398V87H201.602V2.15625ZM310 87V2.15625H370.586V20.2031H332.266V35.5547H367.422V53.6016H332.266V68.9531H370.469V87H310ZM414.531 87H382.305V2.15625H414.297C440.43 2.15625 456.719 18.0938 456.719 44.5781C456.719 71.0625 440.43 87 414.531 87ZM404.57 68.0156H413.711C426.836 68.0156 434.219 62.5078 434.219 44.5781C434.219 26.6484 426.836 21.1406 413.125 21.1406H404.57V68.0156ZM540.625 2.15625V87H521.992L490.469 41.1797H489.883V87H467.617V2.15625H486.602L517.656 47.7422H518.359V2.15625H540.625Z" fill="#B8E6E1"/>
</svg>
