<svg xmlns="http://www.w3.org/2000/svg" width="430" height="431" fill="none" viewBox="0 0 430 431"><g stroke-linecap="round" stroke-linejoin="round" stroke-miterlimit="10"><path stroke="#121331" stroke-width="6" d="M315.5 38.122c-5.2-12.3-47.1-11.4-96 1.3-3.3.9-6.6 1.8-10 2.8-12.7 3.7-24.5 7.8-35.1 12.1m-24.8 11.7c-.8.4-1.6.9-2.4 1.3-17.3 9.9-26.7 19.6-23.8 26.5"/><path stroke="#121331" stroke-width="6" d="M315.5 93.822c5.5-13.1-33-36.2-86.1-51.5s-100.4-17.3-105.9-4.2m129.7 215.099h7.7c46.2 0 83.6 37.4 83.6 83.6v28c0 7.7-5.8 14.1-13.4 15l-29.3 3.4c-8 .9-15.8 3-23.2 6.1-19.1 8-39.5 12-59.8 12s-40.5-4-59.5-11.9l-.2-.1c-7.8-3.2-15.9-5.4-24.2-6.3l-27.9-3.3c-7.6-.9-13.4-7.3-13.4-15v-28c0-46.2 37.4-83.6 83.6-83.6h7.7"/><path stroke="#121331" stroke-width="6" d="M253.2 233.822v19.1c0 18.8-15.4 34.1-34.1 34.1s-34.1-15.4-34.1-34.1v-19.1"/><path stroke="#121331" stroke-width="6" d="m280.3 149.922-1.3 36.6c-.7 19.7-10.8 36.9-25.9 47.3-9.7 6.7-21.5 10.6-34.1 10.6s-24.4-3.9-34.1-10.6c-2.7-1.9-5.2-4-7.6-6.2-10.8-10.4-17.7-24.9-18.3-41.1l-1.4-40v-.2"/><path stroke="#6a4c2d" stroke-width="6" d="m157.7 146.321-.1-.1c-1.5-1.7-16.6-19.2-17.6-44.5-.1-3.9.1-8 .7-12.2 1.3-8.3 3.7-15.9 6.5-22.3.3-.7.6-1.4 1-2.1 1.7-3.5 3.6-6.6 5.4-9.3 4.3-6.1 12.7-7.5 18.7-3l2.1 1.5 13.9 9.9c4.1 3 9.5 3.5 14.1 1.4 11.1-5 33.6-12.9 55.5-7.5 0 0 12.3 3.3 20.9 13.2 1.1 1.2 2 2.5 2.9 3.9 4.1 6.2 6.9 16.2 8 27.2 1.6 16.6-.8 35.6-9.5 47.5-4.7-15.6-4.6-31.7-20.5-49.4"/><path stroke="#6a4c2d" stroke-width="6" d="M157.6 146.423c35.1-1.5 63.9-21.1 80.1-49.7"/><path stroke="#121331" stroke-width="6" d="M315.5 38.121c5.5 13.1-33 36.2-86.1 51.5s-100.4 17.3-105.9 4.2"/><path stroke="#121331" stroke-width="6" d="M123.5 38.121c-5.5 13.1 33 36.2 86.1 51.5s100.5 17.2 106 4.1M92.1 62.522 76 78.622m16.1 0L76 62.521m271.9 61.401-16.1 16.1m16.1 0-16.1-16.1"/><path stroke="#121331" stroke-width="8" d="M112.3 138.521h-.3m240.55-72.224h-.3"/></g></svg>