<svg width="1210" height="541" viewBox="0 0 1210 541" fill="none" xmlns="http://www.w3.org/2000/svg">
<path d="M87.5977 161.508V166.992C87.5977 172.125 87.5977 177.855 86.332 185.133H94.5586V192.305H79.8633V206.297H71.1445V192.305H64.1836V206.297H55.3945V192.305H35.9883V185.133H77.332C78.5273 178.453 78.668 173.32 78.668 168.539H43.0195V161.508H87.5977ZM89.2852 214.172V221.344H42.2461V200.531H51.1758V214.172H89.2852ZM133.934 164.391V171.492H98.3555V164.391H112.137V157.922H121.066V164.391H133.934ZM116.496 173.602C125.285 173.672 131.613 178.523 131.684 185.625C131.613 192.797 125.285 197.578 116.496 197.508C107.637 197.578 101.449 192.797 101.52 185.625C101.449 178.523 107.637 173.672 116.496 173.602ZM116.496 180.281C112.418 180.281 109.816 182.18 109.887 185.625C109.816 189.07 112.418 190.898 116.496 190.898C120.504 190.898 123.316 189.07 123.316 185.625C123.316 182.18 120.504 180.281 116.496 180.281ZM152.145 158.484V199.266H143.215V192.516H134.496V185.344H143.215V179.719H134.637V172.547H143.215V158.484H152.145ZM130.418 200.039C143.988 200.039 152.496 204.188 152.496 211.289C152.496 218.25 143.988 222.469 130.418 222.469C116.777 222.469 108.34 218.25 108.34 211.289C108.34 204.188 116.777 200.039 130.418 200.039ZM130.418 206.789C122.262 206.859 117.762 208.266 117.762 211.289C117.762 214.172 122.262 215.719 130.418 215.719C138.434 215.719 142.863 214.172 142.863 211.289C142.863 208.266 138.434 206.859 130.418 206.789ZM196.652 162V169.172H183.926C184.172 176.168 188.707 183.164 198.902 186.117L194.684 193.008C187.406 190.934 182.379 186.609 179.496 181.125C176.648 187.242 171.445 192.059 163.816 194.344L159.246 187.242C169.688 184.148 174.574 176.66 174.855 169.172H161.777V162H196.652ZM211.207 158.484V172.125H219.855V179.438H211.207V193.711H202.207V158.484H211.207ZM178.16 196.312V202.148H202.207V196.312H211.207V221.766H169.16V196.312H178.16ZM178.16 214.594H202.207V209.039H178.16V214.594ZM276.246 158.484V206.508H267.246V158.484H276.246ZM277.934 214.172V221.344H233.355V202.641H242.426V214.172H277.934ZM262.254 165.305V172.336H223.371V165.305H238.348V158.414H247.418V165.305H262.254ZM242.918 174.586C252.27 174.586 259.02 179.578 259.02 186.961C259.02 194.414 252.27 199.195 242.918 199.195C233.496 199.195 226.746 194.414 226.816 186.961C226.746 179.578 233.496 174.586 242.918 174.586ZM242.918 181.547C238.418 181.617 235.395 183.445 235.395 186.961C235.395 190.406 238.418 192.375 242.918 192.375C247.348 192.375 250.371 190.406 250.441 186.961C250.371 183.445 247.348 181.617 242.918 181.547ZM354.996 158.484V222.469H345.996V158.484H354.996ZM326.52 178.523C326.52 187.805 331.793 198.281 342.41 202.641L337.559 209.531C330.281 206.543 325.078 200.426 322.16 193.078C319.312 200.883 314.074 207.422 306.621 210.516L301.84 203.625C312.387 199.055 317.59 188.297 317.59 178.523V176.062H303.949V168.891H317.52V159.891H326.449V168.891H339.809V176.062H326.52V178.523ZM422.285 207.984V215.367H363.715V207.984H378.691V198.211H370.465V176.695H406.676V169.805H370.395V162.633H415.535V183.867H379.465V190.969H417.012V198.211H407.941V207.984H422.285ZM387.41 207.984H399.152V198.211H387.41V207.984ZM484.512 207.984V215.367H425.941V207.984H450.621V198.352H432.691V176.836H468.902V169.805H432.621V162.633H477.762V183.867H441.691V191.039H479.238V198.352H459.551V207.984H484.512ZM542.871 184.5V191.672H530.426V202.148C535.699 201.973 540.973 201.621 545.965 201.094L546.668 207.633C532.676 209.812 518.121 209.883 506.098 209.883L505.043 202.57C510.141 202.605 515.695 202.605 521.426 202.43V191.672H509.262V164.18H542.52V171.281H518.191V184.5H542.871ZM558.551 158.484V222.609H549.621V158.484H558.551ZM603.48 164.672V171.773H590.543C590.684 178.066 595.324 184.535 605.52 187.102L601.582 193.992C594.199 192.129 589.066 188.121 586.184 183.023C583.336 188.648 578.203 193.113 570.715 195.188L566.496 188.086C576.691 185.449 581.473 178.699 581.613 171.773H568.746V164.672H581.613V158.203H590.684V164.672H603.48ZM617.754 158.484V172.828H626.402V180.211H617.754V194.977H608.754V158.484H617.754ZM618.527 197.719V204.75H602.285C603.902 209.461 610.195 214.031 621.34 215.508L618.176 222.328C607.875 220.957 600.633 216.844 596.941 211.359C593.285 216.809 586.078 220.816 575.918 222.188L572.684 215.367C583.934 213.996 590.156 209.566 591.809 204.75H575.426V197.719H618.527ZM681.176 175.922V182.953H636.457V160.734H645.387V175.922H681.176ZM687.715 189.844V196.875H629.145V189.844H687.715ZM681.598 213.891V221.062H635.895V202.078H644.895V213.891H681.598ZM759.434 199.969V221.766H714.785V199.969H759.434ZM723.645 207.07V214.594H750.645V207.07H723.645ZM759.012 160.664V183.094H741.645V188.367H766.395V195.539H708.035V188.367H732.645V183.094H715.277V160.664H759.012ZM724.066 167.836V175.992H750.223V167.836H724.066ZM806.262 164.883V170.016C806.191 176.062 806.191 183.938 804.504 194.555L795.645 193.852C797.086 184.57 797.227 177.715 797.332 172.055H773.074V164.883H806.262ZM790.301 183.234V201.797C796.594 201.551 802.992 201.094 808.863 200.32L809.426 207C796.277 209.25 781.723 209.461 770.543 209.391L769.699 202.219C773.285 202.184 777.293 202.184 781.441 202.078V183.234H790.301ZM820.957 158.484V184.219H829.676V191.672H820.957V222.469H811.887V158.484H820.957ZM881.848 164.531V206.859H851.121V164.531H881.848ZM859.98 171.562V199.758H872.918V171.562H859.98ZM899.566 158.484V182.602H908.988V190.055H899.566V222.469H890.566V158.484H899.566ZM940.488 159.68C954.691 159.68 963.691 164.391 963.762 172.195C963.691 179.93 954.691 184.641 940.488 184.57C926.355 184.641 917.145 179.93 917.145 172.195C917.145 164.391 926.355 159.68 940.488 159.68ZM940.488 166.641C931.559 166.641 926.426 168.539 926.496 172.195C926.426 175.781 931.559 177.609 940.488 177.609C949.348 177.609 954.48 175.781 954.48 172.195C954.48 168.539 949.348 166.641 940.488 166.641ZM962.707 199.969V221.766H918.059V199.969H962.707ZM926.918 207.07V214.594H953.918V207.07H926.918ZM969.668 188.297V195.469H911.309V188.297H969.668ZM994.277 162.773C1004.4 162.703 1012 169.312 1012 178.453C1012 187.664 1004.4 194.203 994.277 194.203C984.152 194.203 976.488 187.664 976.488 178.453C976.488 169.312 984.152 162.703 994.277 162.773ZM994.277 170.508C989.215 170.508 985.348 173.461 985.418 178.453C985.348 183.516 989.215 186.398 994.277 186.398C999.34 186.398 1003.21 183.516 1003.28 178.453C1003.21 173.461 999.41 170.508 994.277 170.508ZM1027.32 158.484V222.609H1018.39V158.484H1027.32ZM973.816 202.219C985.207 202.289 1001.03 202.078 1014.74 200.18L1015.44 206.648C1001.24 209.391 986.051 209.531 974.871 209.531L973.816 202.219ZM1110.93 207.773V215.016H1052.36V207.773H1077.11V193.5H1086.11V207.773H1110.93ZM1105.79 163.336V170.578H1086.32C1087.05 179.016 1095 186.855 1108.75 188.859L1105.23 195.961C1094.02 193.992 1085.72 188.508 1081.61 180.914C1077.53 188.648 1069.3 194.273 1058.26 196.312L1054.75 189.211C1068.04 187.066 1076.02 179.051 1076.75 170.578H1057.21V163.336H1105.79ZM1165.77 158.484V184.5H1174.14V191.953H1165.77V222.469H1156.7V158.484H1165.77ZM1113.81 204.398C1118.48 204.398 1123.93 204.398 1129.63 204.258V198.773C1122.81 197.438 1118.38 193.113 1118.45 187.172C1118.38 180 1124.85 175.148 1134.2 175.148C1143.34 175.148 1149.88 180 1149.95 187.172C1149.88 193.113 1145.38 197.473 1138.63 198.773V203.906C1143.69 203.66 1148.79 203.238 1153.54 202.57L1154.1 209.109C1140.46 211.641 1125.83 211.711 1115 211.711L1113.81 204.398ZM1153.04 165.586V172.617H1115.07V165.586H1129.63V158.836H1138.63V165.586H1153.04ZM1134.2 181.969C1129.84 181.969 1126.89 183.867 1126.96 187.172C1126.89 190.547 1129.84 192.375 1134.2 192.375C1138.42 192.375 1141.3 190.547 1141.3 187.172C1141.3 183.867 1138.42 181.969 1134.2 181.969ZM296.18 258.484V282.391H305.602V289.914H296.18V322.469H287.18V258.484H296.18ZM256.664 263.547V279.156H269.953V263.547H278.883V307.633H247.734V263.547H256.664ZM256.664 300.391H269.953V286.117H256.664V300.391ZM366.422 290.758V297.859H307.852V290.758H366.422ZM359.32 259.68V276.766H324.094V280.492H360.516V287.312H315.164V270.297H350.32V266.57H315.023V259.68H359.32ZM359.602 301.797V321.766H315.375V301.797H359.602ZM324.164 308.898V314.594H350.672V308.898H324.164ZM420.914 258.555V278.172H429.562V285.484H420.914V306.297H411.914V258.555H420.914ZM408.117 265.234V272.336H370.148V265.234H384.703V258.414H393.633V265.234H408.117ZM389.133 274.586C398.414 274.586 404.883 279.578 404.883 286.961C404.883 294.344 398.414 299.195 389.133 299.195C379.781 299.195 373.242 294.344 373.242 286.961C373.242 279.578 379.781 274.586 389.133 274.586ZM389.133 281.406C384.844 281.477 381.961 283.445 382.031 286.961C381.961 290.477 384.844 292.375 389.133 292.375C393.422 292.375 396.375 290.477 396.375 286.961C396.375 283.445 393.422 281.477 389.133 281.406ZM423.234 314.172V321.344H379.43V302.641H388.359V314.172H423.234ZM453.117 262.773C463.242 262.703 470.836 269.312 470.836 278.453C470.836 287.664 463.242 294.203 453.117 294.203C442.992 294.203 435.328 287.664 435.328 278.453C435.328 269.312 442.992 262.703 453.117 262.773ZM453.117 270.508C448.055 270.508 444.188 273.461 444.258 278.453C444.188 283.516 448.055 286.398 453.117 286.398C458.18 286.398 462.047 283.516 462.117 278.453C462.047 273.461 458.25 270.508 453.117 270.508ZM486.164 258.484V322.609H477.234V258.484H486.164ZM432.656 302.219C444.047 302.289 459.867 302.078 473.578 300.18L474.281 306.648C460.078 309.391 444.891 309.531 433.711 309.531L432.656 302.219ZM548.812 258.555V306.859H539.812V301.797H527.578V295.68H539.812V258.555H548.812ZM550.219 314.172V321.344H502.547V302.219H511.477V293.711C505.746 293.957 500.297 293.992 495.445 293.992L494.391 286.891C506.133 286.82 521.953 286.68 535.453 284.992L535.945 291.391C530.883 292.234 525.645 292.832 520.477 293.219V305.383H511.477V314.172H550.219ZM515.203 260.734C524.484 260.664 531.164 265.375 531.164 272.195C531.164 279.016 524.484 283.445 515.203 283.445C505.711 283.445 499.102 279.016 499.102 272.195C499.102 265.375 505.641 260.664 515.203 260.734ZM515.203 267.273C510.633 267.273 507.539 269.031 507.609 272.195C507.539 275.289 510.633 276.977 515.203 276.977C519.492 276.977 522.586 275.289 522.656 272.195C522.586 269.031 519.492 267.273 515.203 267.273ZM610.406 258.484V322.609H601.336V258.484H610.406ZM575.672 262.984C585.305 262.984 592.477 271.844 592.477 285.766C592.477 299.828 585.305 308.617 575.672 308.617C565.828 308.617 558.656 299.828 558.727 285.766C558.656 271.844 565.828 262.984 575.672 262.984ZM575.672 271.07C570.68 271.07 567.375 276.273 567.375 285.766C567.375 295.328 570.68 300.461 575.672 300.461C580.523 300.461 583.828 295.328 583.828 285.766C583.828 276.273 580.523 271.07 575.672 271.07ZM686.414 258.484V274.234H695.062V281.758H686.414V297.086H677.414V258.484H686.414ZM686.414 299.898V321.766H644.578V299.898H686.414ZM653.438 306.93V314.594H677.555V306.93H653.438ZM673.617 264.25V271.352H635.648V264.25H650.203V258.133H659.133V264.25H673.617ZM654.633 273.32C663.914 273.32 670.383 278.031 670.383 284.781C670.383 291.742 663.914 296.383 654.633 296.383C645.211 296.383 638.742 291.742 638.742 284.781C638.742 278.031 645.211 273.32 654.633 273.32ZM654.633 280.07C650.344 280.07 647.461 281.758 647.531 284.781C647.461 288.016 650.344 289.773 654.633 289.773C658.922 289.773 661.875 288.016 661.875 284.781C661.875 281.758 658.922 280.07 654.633 280.07ZM713.625 265.797C713.555 281.758 712.008 296.102 703.852 308.758L696.891 305.102C703.465 295.152 705.434 285.449 705.891 273.039H699V265.797H713.625ZM727.969 265.797C727.934 271.422 727.828 277.012 727.336 282.461H732.82V259.891H741.258V319.656H732.82V289.703H726.422C725.051 297.543 722.625 305.066 718.195 311.992L711.375 308.195C718.512 297.297 719.988 286.012 720.305 273.039H715.453V265.797H727.969ZM753.844 258.484V322.469H745.266V258.484H753.844ZM810.867 258.484V273.883H819.516V281.336H810.867V295.961H801.867V258.484H810.867ZM777.891 298.422V303.273H801.867V298.422H810.867V321.766H768.961V298.422H777.891ZM777.891 314.734H801.867V310.164H777.891V314.734ZM798.07 264.109V271.141H760.102V264.109H774.656V258.062H783.586V264.109H798.07ZM779.086 272.969C788.367 272.969 794.836 277.469 794.836 284.289C794.836 291.109 788.367 295.609 779.086 295.609C769.664 295.609 763.195 291.109 763.195 284.289C763.195 277.469 769.664 272.969 779.086 272.969ZM779.086 279.578C774.797 279.508 771.914 281.266 771.984 284.289C771.914 287.383 774.797 289.07 779.086 289.07C783.375 289.07 786.328 287.383 786.328 284.289C786.328 281.266 783.375 279.508 779.086 279.578ZM876.117 258.484V322.469H867.188V258.484H876.117ZM834.633 264.602V298.984C843.281 298.879 852.562 298.07 861.984 296.242L863.109 303.625C851.859 305.945 841.312 306.719 831.398 306.648H825.773V264.602H834.633ZM935.039 258.484V282.25H944.461V289.562H935.039V322.609H926.039V258.484H935.039ZM917.109 264.391V271.633H896.016V299.688C905.297 299.582 912.961 299.16 921.469 297.648L922.453 305.172C912.539 306.859 903.82 307.141 892.5 307.07H887.086V264.391H917.109ZM955.078 316.633C951.773 316.633 949.102 313.961 949.172 310.727C949.102 307.492 951.773 304.891 955.078 304.891C958.172 304.891 960.914 307.492 960.914 310.727C960.914 313.961 958.172 316.633 955.078 316.633Z" fill="#6A4C2D"/>
<path d="M221.395 408.453V417.594H226V420.371H221.395V431.27H218.055V408.453H221.395ZM212.113 411.16V413.867H201.355V423.043C207.49 423.061 210.953 422.867 214.891 422.059L215.277 424.766C211.023 425.609 207.297 425.82 200.547 425.82H198.051V411.16H212.113ZM222.73 436.613V439.32H201.426V428.914H204.766V436.613H222.73ZM243.824 410.668C243.824 414.605 248.887 418.402 254.863 419.281L253.562 421.918C248.57 421.092 244.158 418.508 242.137 414.957C240.133 418.578 235.686 421.162 230.676 421.988L229.41 419.352C235.387 418.438 240.414 414.746 240.414 410.668V409.297H243.824V410.668ZM256.551 424.344V427.051H244.035V433.133H240.73V427.051H227.723V424.344H256.551ZM253.352 436.613V439.32H231.309V430.18H234.648V436.613H253.352ZM283.621 408.523V418.648H288.191V421.426H283.621V432.078H280.281V408.523H283.621ZM277.68 412.18V414.887H258.906V412.18H266.641V408.488H269.98V412.18H277.68ZM268.293 416.398C272.828 416.398 275.922 418.754 275.922 422.34C275.922 425.926 272.828 428.246 268.293 428.246C263.723 428.246 260.629 425.926 260.629 422.34C260.629 418.754 263.723 416.398 268.293 416.398ZM268.293 418.965C265.621 418.965 263.828 420.266 263.863 422.34C263.828 424.379 265.621 425.645 268.293 425.645C270.965 425.645 272.758 424.379 272.793 422.34C272.758 420.266 270.965 418.965 268.293 418.965ZM284.957 436.613V439.32H263.652V430.215H266.992V436.613H284.957ZM327.496 423.324V426.031H298.773V423.324H327.496ZM313.117 428.457C319.902 428.457 323.98 430.566 323.98 434.223C323.98 437.879 319.902 439.953 313.117 439.918C306.297 439.953 302.184 437.879 302.184 434.223C302.184 430.566 306.297 428.457 313.117 428.457ZM313.117 431.059C308.301 431.094 305.559 432.184 305.559 434.223C305.559 436.227 308.301 437.281 313.117 437.281C317.863 437.281 320.641 436.227 320.641 434.223C320.641 432.184 317.863 431.094 313.117 431.059ZM324.93 410.035V412.777H315.367C315.736 415.836 320.201 418.438 326.02 419.035L324.824 421.672C319.375 421.039 314.857 418.736 313.152 415.414C311.395 418.736 306.895 421.039 301.445 421.672L300.285 419.035C305.998 418.438 310.498 415.854 310.902 412.777H301.41V410.035H324.93ZM340.75 413.516C340.75 417.664 343.633 421.496 348.344 423.043L346.551 425.68C343.105 424.467 340.521 422.006 339.168 418.895C337.779 422.428 335.107 425.188 331.434 426.559L329.641 423.887C334.562 422.129 337.41 417.945 337.445 413.234V410.141H340.75V413.516ZM354.637 408.488V416.398H359.207V419.211H354.637V427.508H351.297V408.488H354.637ZM344.477 428.246C350.945 428.246 354.918 430.391 354.918 434.082C354.918 437.809 350.945 439.953 344.477 439.918C337.938 439.953 333.895 437.809 333.895 434.082C333.895 430.391 337.938 428.246 344.477 428.246ZM344.477 430.883C339.906 430.883 337.199 432.078 337.234 434.082C337.199 436.156 339.906 437.281 344.477 437.316C349.012 437.281 351.648 436.156 351.648 434.082C351.648 432.078 349.012 430.883 344.477 430.883ZM379.352 409.895C383.957 409.895 387.191 412.426 387.227 416.188C387.191 419.387 384.766 421.742 381.109 422.305V425.082C383.904 424.941 386.699 424.695 389.301 424.309L389.547 426.77C382.938 427.965 375.52 428.07 370.105 428.07L369.754 425.363C372.109 425.381 374.869 425.363 377.77 425.258V422.34C374.008 421.812 371.477 419.439 371.512 416.188C371.477 412.426 374.746 409.895 379.352 409.895ZM379.352 412.461C376.574 412.461 374.605 413.902 374.641 416.188C374.605 418.402 376.574 419.879 379.352 419.879C382.164 419.879 384.062 418.402 384.062 416.188C384.062 413.902 382.164 412.461 379.352 412.461ZM394.574 408.523V418.93H399.074V421.742H394.574V432.605H391.234V408.523H394.574ZM395.699 436.578V439.32H374.219V430.496H377.559V436.578H395.699ZM425.582 408.488V421.672H430.328V424.484H425.582V439.988H422.242V408.488H425.582ZM400.516 431.41C402.994 431.41 405.877 431.41 408.883 431.305V428.105C405.332 427.613 403.012 425.469 403.047 422.41C403.012 418.859 406.07 416.504 410.57 416.504C415.035 416.504 418.129 418.859 418.164 422.41C418.129 425.469 415.773 427.631 412.223 428.141V431.164C415.018 431.059 417.83 430.83 420.449 430.461L420.66 432.922C413.84 434.152 406.457 434.188 401.043 434.188L400.516 431.41ZM419.992 412.215V414.887H401.113V412.215H408.883V408.559H412.223V412.215H419.992ZM410.57 419.105C407.934 419.105 406.176 420.406 406.176 422.41C406.176 424.414 407.934 425.645 410.57 425.645C413.207 425.645 414.965 424.414 414.965 422.41C414.965 420.406 413.207 419.105 410.57 419.105ZM460.809 422.938V425.504H431.98V422.938H460.809ZM457.258 427.719V434.645H438.766V437.246H458.242V439.602H435.426V432.43H453.953V430.109H435.391V427.719H457.258ZM457.188 409.297V416.117H438.977V418.508H457.715V420.863H435.672V413.902H453.848V411.652H435.602V409.297H457.188ZM498.18 428.035V439.602H477.543V428.035H498.18ZM480.848 430.707V436.895H494.91V430.707H480.848ZM477.086 410.316V421.988C481.639 421.988 485.77 421.654 490.27 420.758L490.656 423.57C485.734 424.59 481.305 424.836 476.242 424.836H473.781V410.316H477.086ZM498.18 408.488V426.594H494.84V416.926H486.191V414.219H494.84V408.488H498.18ZM511.574 410.844C515.846 410.844 518.975 414.465 519.484 420.301H525.988V408.488H529.293V440.059H525.988V423.008H519.52C519.15 429.143 515.951 432.957 511.574 432.957C506.863 432.957 503.559 428.668 503.594 421.883C503.559 415.133 506.863 410.844 511.574 410.844ZM511.574 413.832C508.727 413.832 506.758 416.926 506.758 421.883C506.758 426.875 508.727 429.969 511.574 429.969C514.422 429.969 516.391 426.875 516.391 421.883C516.391 416.926 514.422 413.832 511.574 413.832ZM569.195 408.523V431.727H565.855V420.793H559.316V418.016H565.855V408.523H569.195ZM559.527 410.879C559.492 419.105 553.832 425.293 544.797 428.211L543.391 425.539C550.404 423.271 555.168 418.982 555.871 413.656H545.008V410.879H559.527ZM570.004 436.613V439.32H548.91V429.336H552.285V436.613H570.004ZM598.797 408.488V416.434H603.367V419.141H598.797V427.191H595.457V408.488H598.797ZM590.148 410.738C590.148 418.895 584.629 424.766 575.383 427.438L574.012 424.73C581.377 422.639 585.93 418.543 586.527 413.445H575.418V410.738H590.148ZM588.742 427.543C595.105 427.543 599.148 429.898 599.148 433.73C599.148 437.598 595.105 439.953 588.742 439.953C582.414 439.953 578.266 437.598 578.301 433.73C578.266 429.898 582.414 427.543 588.742 427.543ZM588.742 430.18C584.348 430.18 581.57 431.516 581.605 433.73C581.57 435.945 584.348 437.316 588.742 437.316C593.102 437.316 595.879 435.945 595.879 433.73C595.879 431.516 593.102 430.18 588.742 430.18ZM629.91 408.523V418.648H634.48V421.426H629.91V432.078H626.57V408.523H629.91ZM623.969 412.18V414.887H605.195V412.18H612.93V408.488H616.27V412.18H623.969ZM614.582 416.398C619.117 416.398 622.211 418.754 622.211 422.34C622.211 425.926 619.117 428.246 614.582 428.246C610.012 428.246 606.918 425.926 606.918 422.34C606.918 418.754 610.012 416.398 614.582 416.398ZM614.582 418.965C611.91 418.965 610.117 420.266 610.152 422.34C610.117 424.379 611.91 425.645 614.582 425.645C617.254 425.645 619.047 424.379 619.082 422.34C619.047 420.266 617.254 418.965 614.582 418.965ZM631.246 436.613V439.32H609.941V430.215H613.281V436.613H631.246ZM653.992 409.543C658.738 409.578 662.219 412.496 662.254 416.609C662.219 420.758 658.738 423.641 653.992 423.641C649.211 423.641 645.695 420.758 645.695 416.609C645.695 412.496 649.211 409.578 653.992 409.543ZM653.992 412.355C651.074 412.32 648.93 414.043 648.965 416.609C648.93 419.211 651.074 420.934 653.992 420.934C656.875 420.934 659.02 419.211 659.02 416.609C659.02 414.043 656.875 412.32 653.992 412.355ZM671.184 408.488V424.52H667.844V408.488H671.184ZM671.184 425.961V433.906H653.816V436.93H672.238V439.602H650.582V431.41H667.879V428.633H650.477V425.961H671.184ZM687.039 413.516C687.039 417.664 689.922 421.496 694.633 423.043L692.84 425.68C689.395 424.467 686.811 422.006 685.457 418.895C684.068 422.428 681.396 425.188 677.723 426.559L675.93 423.887C680.852 422.129 683.699 417.945 683.734 413.234V410.141H687.039V413.516ZM700.926 408.488V416.398H705.496V419.211H700.926V427.508H697.586V408.488H700.926ZM690.766 428.246C697.234 428.246 701.207 430.391 701.207 434.082C701.207 437.809 697.234 439.953 690.766 439.918C684.227 439.953 680.184 437.809 680.184 434.082C680.184 430.391 684.227 428.246 690.766 428.246ZM690.766 430.883C686.195 430.883 683.488 432.078 683.523 434.082C683.488 436.156 686.195 437.281 690.766 437.316C695.301 437.281 697.938 436.156 697.938 434.082C697.938 432.078 695.301 430.883 690.766 430.883ZM721.633 410.387C728.242 410.387 733.27 413.867 733.27 419.176C733.27 424.484 728.242 428 721.633 427.965C715.023 428 710.031 424.484 710.031 419.176C710.031 413.867 715.023 410.387 721.633 410.387ZM721.633 413.094C716.816 413.059 713.195 415.52 713.23 419.176C713.195 422.867 716.816 425.223 721.633 425.223C726.449 425.223 730.035 422.867 730.035 419.176C730.035 415.52 726.449 413.059 721.633 413.094ZM736.117 433.133V435.91H707.289V433.133H736.117ZM767.23 433.414V436.227H738.402V433.414H751.094V427.895H741.918V417.875H760.41V413.445H741.848V410.703H763.715V420.547H745.223V425.152H764.453V427.895H754.398V433.414H767.23ZM803.652 416.539V419.211H794.336V421.918H807.027V424.59H778.305V421.918H790.996V419.211H782.066V409.648H803.336V412.355H785.406V416.539H803.652ZM803.406 426.945V434.293H785.055V437.07H804.285V439.672H781.785V431.902H800.102V429.441H781.75V426.945H803.406ZM817.855 410.844C822.566 410.844 825.906 415.133 825.941 421.883C825.906 428.668 822.566 432.957 817.855 432.957C813.145 432.957 809.77 428.668 809.805 421.883C809.77 415.133 813.145 410.844 817.855 410.844ZM817.855 413.832C814.973 413.832 813.004 416.926 813.004 421.883C813.004 426.875 814.973 429.969 817.855 429.969C820.773 429.969 822.742 426.875 822.742 421.883C822.742 416.926 820.773 413.832 817.855 413.832ZM833.957 408.488V420.828H839.02V423.641H833.957V439.988H830.617V408.488H833.957ZM865.281 408.488V415.309H869.852V418.086H865.281V424.414H861.941V408.488H865.281ZM856.703 409.895C856.703 417.98 851.078 423.148 841.762 425.258L840.496 422.48C848.23 420.828 852.52 417.154 853.012 412.637H841.973V409.895H856.703ZM865.281 425.785V433.871H848.266V437H866.371V439.672H844.996V431.305H861.977V428.457H844.926V425.785H865.281ZM896.57 411.266C896.535 415.449 901.668 419.387 907.855 420.195L906.555 422.938C901.404 422.111 896.869 419.439 894.848 415.73C892.773 419.457 888.256 422.111 883.141 422.938L881.805 420.195C887.992 419.387 893.055 415.484 893.09 411.266V409.543H896.57V411.266ZM909.156 426.031V428.773H896.359V439.988H893.09V428.773H880.434V426.031H909.156ZM931.27 429.301C931.27 432.008 932.605 434.873 935.453 436.578C938.354 434.732 939.777 431.709 939.777 429.301V427.789H943.047V429.301C943.047 432.57 945.191 435.734 949.305 437.07L947.652 439.531C944.541 438.459 942.432 436.367 941.324 433.766C940.322 436.314 938.441 438.617 935.559 439.812C932.535 438.67 930.619 436.438 929.652 433.871C928.51 436.35 926.436 438.441 923.465 439.531L921.777 437.07C925.82 435.629 928 432.359 928.035 429.301V427.789H931.27V429.301ZM946.457 408.523V426.453H943.117V408.523H946.457ZM929.371 410.246C934.188 410.246 937.738 413.305 937.738 417.699C937.738 422.059 934.188 425.082 929.371 425.082C924.555 425.082 920.969 422.059 920.969 417.699C920.969 413.305 924.555 410.246 929.371 410.246ZM929.371 413.094C926.383 413.059 924.238 414.922 924.238 417.699C924.238 420.441 926.383 422.305 929.371 422.305C932.324 422.305 934.469 420.441 934.469 417.699C934.469 414.922 932.324 413.059 929.371 413.094ZM976.973 423.008V425.68H967.445V433.379H980.277V436.121H951.449V433.379H964.141V425.68H955.035V410.914H976.691V413.621H958.375V423.008H976.973ZM1011.36 425.68V428.387H982.527V425.68H995.289V422.691H986.219V414.676H1004.39V411.863H986.148V409.227H1007.73V417.137H989.523V420.09H1008.37V422.691H998.594V425.68H1011.36ZM1007.91 430.602V439.742H1004.54V433.273H985.762V430.602H1007.91ZM312.432 462.352V464.848C312.432 467.52 312.432 470.648 311.658 474.797H316.088V477.539H287.26V474.797H308.283C309.109 470.701 309.127 467.713 309.127 465.059H290.881V462.352H312.432ZM313.381 488.578V491.32H291.021V480.809H294.326V488.578H313.381ZM325.439 461.684V465.41H340.029V461.684H343.369V474.41H334.369V477.504H347.096V480.246H318.373V477.504H331.064V474.41H322.135V461.684H325.439ZM325.439 471.703H340.029V468.012H325.439V471.703ZM343.861 488.613V491.32H321.994V482.496H325.369V488.613H343.861ZM360.771 466.078C360.771 470.051 363.619 473.953 368.365 475.57L366.643 478.172C363.109 476.941 360.49 474.428 359.119 471.316C357.748 474.779 354.988 477.557 351.244 478.875L349.521 476.238C354.373 474.586 357.361 470.367 357.361 466.113V465.234H350.541V462.527H367.521V465.234H360.771V466.078ZM375.748 480.914V491.988H372.408V483.621H354.408V480.914H375.748ZM375.748 460.488V479.332H372.408V471.246H366.572V468.504H372.408V460.488H375.748ZM406.721 460.523V483.41H403.381V460.523H406.721ZM407.67 488.613V491.32H386.119V481.09H389.494V488.613H407.67ZM389.635 462.633C394.381 462.633 398.002 465.867 398.002 470.438C398.002 475.078 394.381 478.277 389.635 478.277C384.889 478.277 381.232 475.078 381.232 470.438C381.232 465.867 384.889 462.633 389.635 462.633ZM389.635 465.551C386.682 465.551 384.502 467.555 384.502 470.438C384.502 473.391 386.682 475.359 389.635 475.359C392.518 475.359 394.732 473.391 394.732 470.438C394.732 467.555 392.518 465.551 389.635 465.551ZM446.764 460.523V483.727H443.424V472.793H436.885V470.016H443.424V460.523H446.764ZM437.096 462.879C437.061 471.105 431.4 477.293 422.365 480.211L420.959 477.539C427.973 475.271 432.736 470.982 433.439 465.656H422.576V462.879H437.096ZM447.572 488.613V491.32H426.479V481.336H429.854V488.613H447.572ZM476.365 460.488V468.434H480.936V471.141H476.365V479.191H473.025V460.488H476.365ZM467.717 462.738C467.717 470.895 462.197 476.766 452.951 479.438L451.58 476.73C458.945 474.639 463.498 470.543 464.096 465.445H452.986V462.738H467.717ZM466.311 479.543C472.674 479.543 476.717 481.898 476.717 485.73C476.717 489.598 472.674 491.953 466.311 491.953C459.982 491.953 455.834 489.598 455.869 485.73C455.834 481.898 459.982 479.543 466.311 479.543ZM466.311 482.18C461.916 482.18 459.139 483.516 459.174 485.73C459.139 487.945 461.916 489.316 466.311 489.316C470.67 489.316 473.447 487.945 473.447 485.73C473.447 483.516 470.67 482.18 466.311 482.18ZM492.994 462.738C497.986 462.703 501.537 465.797 501.572 470.227C501.537 474.656 497.986 477.75 492.994 477.75C488.037 477.75 484.381 474.656 484.416 470.227C484.381 465.797 488.037 462.703 492.994 462.738ZM492.994 465.621C489.936 465.621 487.686 467.449 487.721 470.227C487.686 473.004 489.936 474.832 492.994 474.832C496.053 474.832 498.303 473.004 498.303 470.227C498.303 467.449 496.053 465.621 492.994 465.621ZM508.779 460.488V492.059H505.439V460.488H508.779ZM482.904 482.496C488.635 482.496 496.58 482.426 503.471 481.441L503.717 483.867C496.58 485.238 488.951 485.273 483.326 485.273L482.904 482.496ZM547.17 460.488V472.688H552.232V475.5H547.17V491.988H543.83V460.488H547.17ZM527.131 463.125V471.211H535.463V463.125H538.768V484.5H523.826V463.125H527.131ZM527.131 481.758H535.463V473.848H527.131V481.758ZM582.537 477.785V480.492H553.709V477.785H582.537ZM579.584 488.613V491.32H557.471V482.742H560.811V488.613H579.584ZM578.916 461.438V469.523H560.705V472.617H579.549V475.184H557.4V467.098H575.576V464.074H557.33V461.438H578.916ZM619.768 460.488V476.52H616.428V460.488H619.768ZM610.311 461.895C610.275 470.156 604.896 475.043 595.369 477.152L594.139 474.445C602.031 472.793 606.145 469.26 606.654 464.637H595.791V461.895H610.311ZM619.768 477.926V485.836H602.471V489.035H620.822V491.672H599.166V483.34H616.428V480.562H599.061V477.926H619.768ZM635.729 465.832C635.693 469.734 638.541 473.391 643.357 474.867L641.775 477.434C638.137 476.309 635.465 473.953 634.076 470.965C632.688 474.27 629.928 476.854 626.131 478.102L624.443 475.465C629.33 473.883 632.354 470.051 632.354 465.867V465.199H625.463V462.457H642.514V465.199H635.729V465.832ZM649.51 460.488V467.59H654.08V470.332H649.51V477.75H646.17V460.488H649.51ZM632.635 479.191V482.742H646.17V479.191H649.51V491.602H629.33V479.191H632.635ZM632.635 488.895H646.17V485.344H632.635V488.895ZM681.959 460.488V492.059H678.619V460.488H681.959ZM665.119 462.844C669.795 462.844 673.24 467.133 673.24 473.883C673.24 480.668 669.795 484.957 665.119 484.957C660.373 484.957 656.963 480.668 656.963 473.883C656.963 467.133 660.373 462.844 665.119 462.844ZM665.119 465.832C662.201 465.832 660.197 468.926 660.197 473.883C660.197 478.875 662.201 481.969 665.119 481.969C668.002 481.969 670.006 478.875 670.006 473.883C670.006 468.926 668.002 465.832 665.119 465.832ZM711.525 460.488V473.039H716.412V475.816H711.525V491.953H708.186V460.488H711.525ZM703.299 463.793C703.264 472.898 699.256 481.02 688.885 486.152L687.021 483.551C694.914 479.613 699.203 473.918 699.889 466.57H688.604V463.793H703.299ZM745.662 473.812V476.555H739.018V482.391C741.936 482.25 744.871 482.057 747.631 481.758L747.877 484.219C740.951 485.273 733.463 485.344 727.486 485.379L727.064 482.602C729.719 482.602 732.654 482.584 735.678 482.496V476.555H729.35V463.406H745.521V466.113H732.654V473.812H745.662ZM752.939 460.488V492.059H749.6V460.488H752.939ZM766.545 462.844C770.816 462.844 773.945 466.465 774.455 472.301H780.959V460.488H784.264V492.059H780.959V475.008H774.49C774.121 481.143 770.922 484.957 766.545 484.957C761.834 484.957 758.529 480.668 758.564 473.883C758.529 467.133 761.834 462.844 766.545 462.844ZM766.545 465.832C763.697 465.832 761.729 468.926 761.729 473.883C761.729 478.875 763.697 481.969 766.545 481.969C769.393 481.969 771.361 478.875 771.361 473.883C771.361 468.926 769.393 465.832 766.545 465.832ZM814.639 475.43V478.172H792.701V463.301H814.357V466.043H796.006V475.43H814.639ZM817.943 485.062V487.84H789.115V485.062H817.943ZM846.35 460.523V477.891H843.01V460.523H846.35ZM836.295 462V470.789H825.15V474.516C830.652 474.48 834.713 474.34 839.494 473.566L839.916 476.273C834.783 477.117 830.459 477.258 824.518 477.293H821.881V468.188H832.99V464.707H821.811V462H836.295ZM829.018 479.367V482.777H843.045V479.367H846.35V491.602H825.678V479.367H829.018ZM829.018 488.895H843.045V485.414H829.018V488.895ZM877.498 460.488V491.988H874.158V460.488H877.498ZM856.58 463.547V481.09C861.168 481.055 866.002 480.686 871.064 479.648L871.521 482.461C865.932 483.586 860.869 483.973 855.912 483.973H853.275V463.547H856.58ZM906.994 460.488V472.688H912.057V475.43H906.994V492.059H903.654V460.488H906.994ZM898.521 463.512V466.219H887.131V481.441C892.422 481.424 896.395 481.195 900.877 480.387L901.299 483.199C896.377 484.078 892.193 484.254 886.322 484.219H883.791V463.512H898.521ZM917.154 489.246C915.783 489.246 914.623 488.121 914.658 486.75C914.623 485.379 915.783 484.254 917.154 484.254C918.49 484.254 919.65 485.379 919.65 486.75C919.65 488.121 918.49 489.246 917.154 489.246Z" fill="#6A4C2D"/>
<path d="M377.297 83.7812C379.5 84.25 381.148 85 382.242 86.0312C383.758 87.4688 384.516 89.2266 384.516 91.3047C384.516 92.8828 384.016 94.3984 383.016 95.8516C382.016 97.2891 380.641 98.3438 378.891 99.0156C377.156 99.6719 374.5 100 370.922 100H355.922V99.1328H357.117C358.445 99.1328 359.398 98.7109 359.977 97.8672C360.336 97.3203 360.516 96.1562 360.516 94.375V73.8438C360.516 71.875 360.289 70.6328 359.836 70.1172C359.227 69.4297 358.32 69.0859 357.117 69.0859H355.922V68.2188H369.656C372.219 68.2188 374.273 68.4062 375.82 68.7812C378.164 69.3438 379.953 70.3438 381.188 71.7812C382.422 73.2031 383.039 74.8438 383.039 76.7031C383.039 78.2969 382.555 79.7266 381.586 80.9922C380.617 82.2422 379.188 83.1719 377.297 83.7812ZM365.016 82.5156C365.594 82.625 366.25 82.7109 366.984 82.7734C367.734 82.8203 368.555 82.8438 369.445 82.8438C371.727 82.8438 373.438 82.6016 374.578 82.1172C375.734 81.6172 376.617 80.8594 377.227 79.8438C377.836 78.8281 378.141 77.7188 378.141 76.5156C378.141 74.6562 377.383 73.0703 375.867 71.7578C374.352 70.4453 372.141 69.7891 369.234 69.7891C367.672 69.7891 366.266 69.9609 365.016 70.3047V82.5156ZM365.016 97.7031C366.828 98.125 368.617 98.3359 370.383 98.3359C373.211 98.3359 375.367 97.7031 376.852 96.4375C378.336 95.1562 379.078 93.5781 379.078 91.7031C379.078 90.4688 378.742 89.2812 378.07 88.1406C377.398 87 376.305 86.1016 374.789 85.4453C373.273 84.7891 371.398 84.4609 369.164 84.4609C368.195 84.4609 367.367 84.4766 366.68 84.5078C365.992 84.5391 365.438 84.5938 365.016 84.6719V97.7031ZM400.805 96.9062C398.602 98.6094 397.219 99.5938 396.656 99.8594C395.812 100.25 394.914 100.445 393.961 100.445C392.477 100.445 391.25 99.9375 390.281 98.9219C389.328 97.9062 388.852 96.5703 388.852 94.9141C388.852 93.8672 389.086 92.9609 389.555 92.1953C390.195 91.1328 391.305 90.1328 392.883 89.1953C394.477 88.2578 397.117 87.1172 400.805 85.7734V84.9297C400.805 82.7891 400.461 81.3203 399.773 80.5234C399.102 79.7266 398.117 79.3281 396.82 79.3281C395.836 79.3281 395.055 79.5938 394.477 80.125C393.883 80.6562 393.586 81.2656 393.586 81.9531L393.633 83.3125C393.633 84.0312 393.445 84.5859 393.07 84.9766C392.711 85.3672 392.234 85.5625 391.641 85.5625C391.062 85.5625 390.586 85.3594 390.211 84.9531C389.852 84.5469 389.672 83.9922 389.672 83.2891C389.672 81.9453 390.359 80.7109 391.734 79.5859C393.109 78.4609 395.039 77.8984 397.523 77.8984C399.43 77.8984 400.992 78.2188 402.211 78.8594C403.133 79.3438 403.812 80.1016 404.25 81.1328C404.531 81.8047 404.672 83.1797 404.672 85.2578V92.5469C404.672 94.5938 404.711 95.8516 404.789 96.3203C404.867 96.7734 404.992 97.0781 405.164 97.2344C405.352 97.3906 405.562 97.4688 405.797 97.4688C406.047 97.4688 406.266 97.4141 406.453 97.3047C406.781 97.1016 407.414 96.5312 408.352 95.5938V96.9062C406.602 99.25 404.93 100.422 403.336 100.422C402.57 100.422 401.961 100.156 401.508 99.625C401.055 99.0938 400.82 98.1875 400.805 96.9062ZM400.805 95.3828V87.2031C398.445 88.1406 396.922 88.8047 396.234 89.1953C395 89.8828 394.117 90.6016 393.586 91.3516C393.055 92.1016 392.789 92.9219 392.789 93.8125C392.789 94.9375 393.125 95.875 393.797 96.625C394.469 97.3594 395.242 97.7266 396.117 97.7266C397.305 97.7266 398.867 96.9453 400.805 95.3828ZM416.25 77.8984V82.7266C418.047 79.5078 419.891 77.8984 421.781 77.8984C422.641 77.8984 423.352 78.1641 423.914 78.6953C424.477 79.2109 424.758 79.8125 424.758 80.5C424.758 81.1094 424.555 81.625 424.148 82.0469C423.742 82.4688 423.258 82.6797 422.695 82.6797C422.148 82.6797 421.531 82.4141 420.844 81.8828C420.172 81.3359 419.672 81.0625 419.344 81.0625C419.062 81.0625 418.758 81.2188 418.43 81.5312C417.727 82.1719 417 83.2266 416.25 84.6953V94.9844C416.25 96.1719 416.398 97.0703 416.695 97.6797C416.898 98.1016 417.258 98.4531 417.773 98.7344C418.289 99.0156 419.031 99.1562 420 99.1562V100H409.008V99.1562C410.102 99.1562 410.914 98.9844 411.445 98.6406C411.836 98.3906 412.109 97.9922 412.266 97.4453C412.344 97.1797 412.383 96.4219 412.383 95.1719V86.8516C412.383 84.3516 412.328 82.8672 412.219 82.3984C412.125 81.9141 411.938 81.5625 411.656 81.3438C411.391 81.125 411.055 81.0156 410.648 81.0156C410.164 81.0156 409.617 81.1328 409.008 81.3672L408.773 80.5234L415.266 77.8984H416.25ZM429.562 86.6172C429.547 89.8047 430.32 92.3047 431.883 94.1172C433.445 95.9297 435.281 96.8359 437.391 96.8359C438.797 96.8359 440.016 96.4531 441.047 95.6875C442.094 94.9062 442.969 93.5781 443.672 91.7031L444.398 92.1719C444.07 94.3125 443.117 96.2656 441.539 98.0312C439.961 99.7812 437.984 100.656 435.609 100.656C433.031 100.656 430.82 99.6562 428.977 97.6562C427.148 95.6406 426.234 92.9375 426.234 89.5469C426.234 85.875 427.172 83.0156 429.047 80.9688C430.938 78.9062 433.305 77.875 436.148 77.875C438.555 77.875 440.531 78.6719 442.078 80.2656C443.625 81.8438 444.398 83.9609 444.398 86.6172H429.562ZM429.562 85.2578H439.5C439.422 83.8828 439.258 82.9141 439.008 82.3516C438.617 81.4766 438.031 80.7891 437.25 80.2891C436.484 79.7891 435.68 79.5391 434.836 79.5391C433.539 79.5391 432.375 80.0469 431.344 81.0625C430.328 82.0625 429.734 83.4609 429.562 85.2578ZM466.102 78.5312V91.5391C466.102 94.0234 466.156 95.5469 466.266 96.1094C466.391 96.6562 466.578 97.0391 466.828 97.2578C467.094 97.4766 467.398 97.5859 467.742 97.5859C468.227 97.5859 468.773 97.4531 469.383 97.1875L469.711 98.0078L463.289 100.656H462.234V96.1094C460.391 98.1094 458.984 99.3672 458.016 99.8828C457.047 100.398 456.023 100.656 454.945 100.656C453.742 100.656 452.695 100.312 451.805 99.625C450.93 98.9219 450.32 98.0234 449.977 96.9297C449.633 95.8359 449.461 94.2891 449.461 92.2891V82.7031C449.461 81.6875 449.352 80.9844 449.133 80.5938C448.914 80.2031 448.586 79.9062 448.148 79.7031C447.727 79.4844 446.953 79.3828 445.828 79.3984V78.5312H453.352V92.8984C453.352 94.8984 453.695 96.2109 454.383 96.8359C455.086 97.4609 455.93 97.7734 456.914 97.7734C457.586 97.7734 458.344 97.5625 459.188 97.1406C460.047 96.7188 461.062 95.9141 462.234 94.7266V82.5625C462.234 81.3438 462.008 80.5234 461.555 80.1016C461.117 79.6641 460.195 79.4297 458.789 79.3984V78.5312H466.102ZM477.656 82.4688C479.219 80.9062 480.141 80.0078 480.422 79.7734C481.125 79.1797 481.883 78.7188 482.695 78.3906C483.508 78.0625 484.312 77.8984 485.109 77.8984C486.453 77.8984 487.609 78.2891 488.578 79.0703C489.547 79.8516 490.195 80.9844 490.523 82.4688C492.133 80.5938 493.492 79.3672 494.602 78.7891C495.711 78.1953 496.852 77.8984 498.023 77.8984C499.164 77.8984 500.172 78.1953 501.047 78.7891C501.938 79.3672 502.641 80.3203 503.156 81.6484C503.5 82.5547 503.672 83.9766 503.672 85.9141V95.1484C503.672 96.4922 503.773 97.4141 503.977 97.9141C504.133 98.2578 504.422 98.5547 504.844 98.8047C505.266 99.0391 505.953 99.1562 506.906 99.1562V100H496.312V99.1562H496.758C497.68 99.1562 498.398 98.9766 498.914 98.6172C499.273 98.3672 499.531 97.9688 499.688 97.4219C499.75 97.1562 499.781 96.3984 499.781 95.1484V85.9141C499.781 84.1641 499.57 82.9297 499.148 82.2109C498.539 81.2109 497.562 80.7109 496.219 80.7109C495.391 80.7109 494.555 80.9219 493.711 81.3438C492.883 81.75 491.875 82.5156 490.688 83.6406L490.641 83.8984L490.688 84.9062V95.1484C490.688 96.6172 490.766 97.5312 490.922 97.8906C491.094 98.25 491.406 98.5547 491.859 98.8047C492.312 99.0391 493.086 99.1562 494.18 99.1562V100H483.328V99.1562C484.516 99.1562 485.328 99.0156 485.766 98.7344C486.219 98.4531 486.531 98.0312 486.703 97.4688C486.781 97.2031 486.82 96.4297 486.82 95.1484V85.9141C486.82 84.1641 486.562 82.9062 486.047 82.1406C485.359 81.1406 484.398 80.6406 483.164 80.6406C482.32 80.6406 481.484 80.8672 480.656 81.3203C479.359 82.0078 478.359 82.7812 477.656 83.6406V95.1484C477.656 96.5547 477.75 97.4688 477.938 97.8906C478.141 98.3125 478.43 98.6328 478.805 98.8516C479.195 99.0547 479.977 99.1562 481.148 99.1562V100H470.531V99.1562C471.516 99.1562 472.203 99.0547 472.594 98.8516C472.984 98.6328 473.281 98.2969 473.484 97.8438C473.688 97.375 473.789 96.4766 473.789 95.1484V86.9453C473.789 84.5859 473.719 83.0625 473.578 82.375C473.469 81.8594 473.297 81.5078 473.062 81.3203C472.828 81.1172 472.508 81.0156 472.102 81.0156C471.664 81.0156 471.141 81.1328 470.531 81.3672L470.18 80.5234L476.648 77.8984H477.656V82.4688ZM533.484 82.375L545.203 94.0234C547.125 95.9453 548.766 97.2578 550.125 97.9609C551.484 98.6484 552.844 99.0391 554.203 99.1328V100H539.086V99.1328C539.992 99.1328 540.641 98.9844 541.031 98.6875C541.438 98.375 541.641 98.0312 541.641 97.6562C541.641 97.2812 541.562 96.9453 541.406 96.6484C541.266 96.3516 540.781 95.7969 539.953 94.9844L528.984 84.1328V94.375C528.984 95.9844 529.086 97.0469 529.289 97.5625C529.445 97.9531 529.773 98.2891 530.273 98.5703C530.945 98.9453 531.656 99.1328 532.406 99.1328H533.484V100H519.938V99.1328H521.062C522.375 99.1328 523.328 98.75 523.922 97.9844C524.297 97.4844 524.484 96.2812 524.484 94.375V73.8438C524.484 72.2344 524.383 71.1641 524.18 70.6328C524.023 70.2578 523.703 69.9297 523.219 69.6484C522.531 69.2734 521.812 69.0859 521.062 69.0859H519.938V68.2188H533.484V69.0859H532.406C531.672 69.0859 530.961 69.2656 530.273 69.625C529.789 69.875 529.453 70.25 529.266 70.75C529.078 71.25 528.984 72.2812 528.984 73.8438V83.5703C529.297 83.2734 530.367 82.2812 532.195 80.5938C536.836 76.3438 539.641 73.5078 540.609 72.0859C541.031 71.4609 541.242 70.9141 541.242 70.4453C541.242 70.0859 541.078 69.7734 540.75 69.5078C540.422 69.2266 539.867 69.0859 539.086 69.0859H538.359V68.2188H550.031V69.0859C549.344 69.1016 548.719 69.1953 548.156 69.3672C547.594 69.5391 546.906 69.875 546.094 70.375C545.281 70.8594 544.281 71.6484 543.094 72.7422C542.75 73.0547 541.164 74.6562 538.336 77.5469L533.484 82.375ZM565.828 77.8984C569.078 77.8984 571.688 79.1328 573.656 81.6016C575.328 83.7109 576.164 86.1328 576.164 88.8672C576.164 90.7891 575.703 92.7344 574.781 94.7031C573.859 96.6719 572.586 98.1562 570.961 99.1562C569.352 100.156 567.555 100.656 565.57 100.656C562.336 100.656 559.766 99.3672 557.859 96.7891C556.25 94.6172 555.445 92.1797 555.445 89.4766C555.445 87.5078 555.93 85.5547 556.898 83.6172C557.883 81.6641 559.172 80.2266 560.766 79.3047C562.359 78.3672 564.047 77.8984 565.828 77.8984ZM565.102 79.4219C564.273 79.4219 563.438 79.6719 562.594 80.1719C561.766 80.6562 561.094 81.5156 560.578 82.75C560.062 83.9844 559.805 85.5703 559.805 87.5078C559.805 90.6328 560.422 93.3281 561.656 95.5938C562.906 97.8594 564.547 98.9922 566.578 98.9922C568.094 98.9922 569.344 98.3672 570.328 97.1172C571.312 95.8672 571.805 93.7188 571.805 90.6719C571.805 86.8594 570.984 83.8594 569.344 81.6719C568.234 80.1719 566.82 79.4219 565.102 79.4219ZM585.609 77.8984V82.7266C587.406 79.5078 589.25 77.8984 591.141 77.8984C592 77.8984 592.711 78.1641 593.273 78.6953C593.836 79.2109 594.117 79.8125 594.117 80.5C594.117 81.1094 593.914 81.625 593.508 82.0469C593.102 82.4688 592.617 82.6797 592.055 82.6797C591.508 82.6797 590.891 82.4141 590.203 81.8828C589.531 81.3359 589.031 81.0625 588.703 81.0625C588.422 81.0625 588.117 81.2188 587.789 81.5312C587.086 82.1719 586.359 83.2266 585.609 84.6953V94.9844C585.609 96.1719 585.758 97.0703 586.055 97.6797C586.258 98.1016 586.617 98.4531 587.133 98.7344C587.648 99.0156 588.391 99.1562 589.359 99.1562V100H578.367V99.1562C579.461 99.1562 580.273 98.9844 580.805 98.6406C581.195 98.3906 581.469 97.9922 581.625 97.4453C581.703 97.1797 581.742 96.4219 581.742 95.1719V86.8516C581.742 84.3516 581.688 82.8672 581.578 82.3984C581.484 81.9141 581.297 81.5625 581.016 81.3438C580.75 81.125 580.414 81.0156 580.008 81.0156C579.523 81.0156 578.977 81.1328 578.367 81.3672L578.133 80.5234L584.625 77.8984H585.609ZM598.922 86.6172C598.906 89.8047 599.68 92.3047 601.242 94.1172C602.805 95.9297 604.641 96.8359 606.75 96.8359C608.156 96.8359 609.375 96.4531 610.406 95.6875C611.453 94.9062 612.328 93.5781 613.031 91.7031L613.758 92.1719C613.43 94.3125 612.477 96.2656 610.898 98.0312C609.32 99.7812 607.344 100.656 604.969 100.656C602.391 100.656 600.18 99.6562 598.336 97.6562C596.508 95.6406 595.594 92.9375 595.594 89.5469C595.594 85.875 596.531 83.0156 598.406 80.9688C600.297 78.9062 602.664 77.875 605.508 77.875C607.914 77.875 609.891 78.6719 611.438 80.2656C612.984 81.8438 613.758 83.9609 613.758 86.6172H598.922ZM598.922 85.2578H608.859C608.781 83.8828 608.617 82.9141 608.367 82.3516C607.977 81.4766 607.391 80.7891 606.609 80.2891C605.844 79.7891 605.039 79.5391 604.195 79.5391C602.898 79.5391 601.734 80.0469 600.703 81.0625C599.688 82.0625 599.094 83.4609 598.922 85.2578ZM628.805 96.9062C626.602 98.6094 625.219 99.5938 624.656 99.8594C623.812 100.25 622.914 100.445 621.961 100.445C620.477 100.445 619.25 99.9375 618.281 98.9219C617.328 97.9062 616.852 96.5703 616.852 94.9141C616.852 93.8672 617.086 92.9609 617.555 92.1953C618.195 91.1328 619.305 90.1328 620.883 89.1953C622.477 88.2578 625.117 87.1172 628.805 85.7734V84.9297C628.805 82.7891 628.461 81.3203 627.773 80.5234C627.102 79.7266 626.117 79.3281 624.82 79.3281C623.836 79.3281 623.055 79.5938 622.477 80.125C621.883 80.6562 621.586 81.2656 621.586 81.9531L621.633 83.3125C621.633 84.0312 621.445 84.5859 621.07 84.9766C620.711 85.3672 620.234 85.5625 619.641 85.5625C619.062 85.5625 618.586 85.3594 618.211 84.9531C617.852 84.5469 617.672 83.9922 617.672 83.2891C617.672 81.9453 618.359 80.7109 619.734 79.5859C621.109 78.4609 623.039 77.8984 625.523 77.8984C627.43 77.8984 628.992 78.2188 630.211 78.8594C631.133 79.3438 631.812 80.1016 632.25 81.1328C632.531 81.8047 632.672 83.1797 632.672 85.2578V92.5469C632.672 94.5938 632.711 95.8516 632.789 96.3203C632.867 96.7734 632.992 97.0781 633.164 97.2344C633.352 97.3906 633.562 97.4688 633.797 97.4688C634.047 97.4688 634.266 97.4141 634.453 97.3047C634.781 97.1016 635.414 96.5312 636.352 95.5938V96.9062C634.602 99.25 632.93 100.422 631.336 100.422C630.57 100.422 629.961 100.156 629.508 99.625C629.055 99.0938 628.82 98.1875 628.805 96.9062ZM628.805 95.3828V87.2031C626.445 88.1406 624.922 88.8047 624.234 89.1953C623 89.8828 622.117 90.6016 621.586 91.3516C621.055 92.1016 620.789 92.9219 620.789 93.8125C620.789 94.9375 621.125 95.875 621.797 96.625C622.469 97.3594 623.242 97.7266 624.117 97.7266C625.305 97.7266 626.867 96.9453 628.805 95.3828ZM644.227 82.4453C646.742 79.4141 649.141 77.8984 651.422 77.8984C652.594 77.8984 653.602 78.1953 654.445 78.7891C655.289 79.3672 655.961 80.3281 656.461 81.6719C656.805 82.6094 656.977 84.0469 656.977 85.9844V95.1484C656.977 96.5078 657.086 97.4297 657.305 97.9141C657.477 98.3047 657.75 98.6094 658.125 98.8281C658.516 99.0469 659.227 99.1562 660.258 99.1562V100H649.641V99.1562H650.086C651.086 99.1562 651.781 99.0078 652.172 98.7109C652.578 98.3984 652.859 97.9453 653.016 97.3516C653.078 97.1172 653.109 96.3828 653.109 95.1484V86.3594C653.109 84.4062 652.852 82.9922 652.336 82.1172C651.836 81.2266 650.984 80.7812 649.781 80.7812C647.922 80.7812 646.07 81.7969 644.227 83.8281V95.1484C644.227 96.6016 644.312 97.5 644.484 97.8438C644.703 98.2969 645 98.6328 645.375 98.8516C645.766 99.0547 646.547 99.1562 647.719 99.1562V100H637.102V99.1562H637.57C638.664 99.1562 639.398 98.8828 639.773 98.3359C640.164 97.7734 640.359 96.7109 640.359 95.1484V87.1797C640.359 84.6016 640.297 83.0312 640.172 82.4688C640.062 81.9062 639.883 81.5234 639.633 81.3203C639.398 81.1172 639.078 81.0156 638.672 81.0156C638.234 81.0156 637.711 81.1328 637.102 81.3672L636.75 80.5234L643.219 77.8984H644.227V82.4453ZM692.109 100L679.828 73.2578V94.4922C679.828 96.4453 680.039 97.6641 680.461 98.1484C681.039 98.8047 681.953 99.1328 683.203 99.1328H684.328V100H673.266V99.1328H674.391C675.734 99.1328 676.688 98.7266 677.25 97.9141C677.594 97.4141 677.766 96.2734 677.766 94.4922V73.7266C677.766 72.3203 677.609 71.3047 677.297 70.6797C677.078 70.2266 676.672 69.8516 676.078 69.5547C675.5 69.2422 674.562 69.0859 673.266 69.0859V68.2188H682.266L693.797 93.0859L705.141 68.2188H714.141V69.0859H713.039C711.68 69.0859 710.719 69.4922 710.156 70.3047C709.812 70.8047 709.641 71.9453 709.641 73.7266V94.4922C709.641 96.4453 709.859 97.6641 710.297 98.1484C710.875 98.8047 711.789 99.1328 713.039 99.1328H714.141V100H700.641V99.1328H701.766C703.125 99.1328 704.078 98.7266 704.625 97.9141C704.969 97.4141 705.141 96.2734 705.141 94.4922V73.2578L692.883 100H692.109ZM720.281 86.6172C720.266 89.8047 721.039 92.3047 722.602 94.1172C724.164 95.9297 726 96.8359 728.109 96.8359C729.516 96.8359 730.734 96.4531 731.766 95.6875C732.812 94.9062 733.688 93.5781 734.391 91.7031L735.117 92.1719C734.789 94.3125 733.836 96.2656 732.258 98.0312C730.68 99.7812 728.703 100.656 726.328 100.656C723.75 100.656 721.539 99.6562 719.695 97.6562C717.867 95.6406 716.953 92.9375 716.953 89.5469C716.953 85.875 717.891 83.0156 719.766 80.9688C721.656 78.9062 724.023 77.875 726.867 77.875C729.273 77.875 731.25 78.6719 732.797 80.2656C734.344 81.8438 735.117 83.9609 735.117 86.6172H720.281ZM720.281 85.2578H730.219C730.141 83.8828 729.977 82.9141 729.727 82.3516C729.336 81.4766 728.75 80.7891 727.969 80.2891C727.203 79.7891 726.398 79.5391 725.555 79.5391C724.258 79.5391 723.094 80.0469 722.062 81.0625C721.047 82.0625 720.453 83.4609 720.281 85.2578ZM753.164 97.5859C752.117 98.6797 751.094 99.4688 750.094 99.9531C749.094 100.422 748.016 100.656 746.859 100.656C744.516 100.656 742.469 99.6797 740.719 97.7266C738.969 95.7578 738.094 93.2344 738.094 90.1562C738.094 87.0781 739.062 84.2656 741 81.7188C742.938 79.1562 745.43 77.875 748.477 77.875C750.367 77.875 751.93 78.4766 753.164 79.6797V75.7188C753.164 73.2656 753.102 71.7578 752.977 71.1953C752.867 70.6328 752.688 70.25 752.438 70.0469C752.188 69.8438 751.875 69.7422 751.5 69.7422C751.094 69.7422 750.555 69.8672 749.883 70.1172L749.578 69.2969L755.977 66.6719H757.031V91.4922C757.031 94.0078 757.086 95.5469 757.195 96.1094C757.32 96.6562 757.508 97.0391 757.758 97.2578C758.023 97.4766 758.328 97.5859 758.672 97.5859C759.094 97.5859 759.656 97.4531 760.359 97.1875L760.617 98.0078L754.242 100.656H753.164V97.5859ZM753.164 95.9453V84.8828C753.07 83.8203 752.789 82.8516 752.32 81.9766C751.852 81.1016 751.227 80.4453 750.445 80.0078C749.68 79.5547 748.93 79.3281 748.195 79.3281C746.82 79.3281 745.594 79.9453 744.516 81.1797C743.094 82.8047 742.383 85.1797 742.383 88.3047C742.383 91.4609 743.07 93.8828 744.445 95.5703C745.82 97.2422 747.352 98.0781 749.039 98.0781C750.461 98.0781 751.836 97.3672 753.164 95.9453ZM767.461 66.6719C768.117 66.6719 768.672 66.9062 769.125 67.375C769.594 67.8281 769.828 68.3828 769.828 69.0391C769.828 69.6953 769.594 70.2578 769.125 70.7266C768.672 71.1953 768.117 71.4297 767.461 71.4297C766.805 71.4297 766.242 71.1953 765.773 70.7266C765.305 70.2578 765.07 69.6953 765.07 69.0391C765.07 68.3828 765.297 67.8281 765.75 67.375C766.219 66.9062 766.789 66.6719 767.461 66.6719ZM769.406 77.8984V95.1484C769.406 96.4922 769.5 97.3906 769.688 97.8438C769.891 98.2812 770.18 98.6094 770.555 98.8281C770.945 99.0469 771.648 99.1562 772.664 99.1562V100H762.234V99.1562C763.281 99.1562 763.984 99.0547 764.344 98.8516C764.703 98.6484 764.984 98.3125 765.188 97.8438C765.406 97.375 765.516 96.4766 765.516 95.1484V86.875C765.516 84.5469 765.445 83.0391 765.305 82.3516C765.195 81.8516 765.023 81.5078 764.789 81.3203C764.555 81.1172 764.234 81.0156 763.828 81.0156C763.391 81.0156 762.859 81.1328 762.234 81.3672L761.906 80.5234L768.375 77.8984H769.406ZM793.594 91.8438C793.016 94.6719 791.883 96.8516 790.195 98.3828C788.508 99.8984 786.641 100.656 784.594 100.656C782.156 100.656 780.031 99.6328 778.219 97.5859C776.406 95.5391 775.5 92.7734 775.5 89.2891C775.5 85.9141 776.5 83.1719 778.5 81.0625C780.516 78.9531 782.93 77.8984 785.742 77.8984C787.852 77.8984 789.586 78.4609 790.945 79.5859C792.305 80.6953 792.984 81.8516 792.984 83.0547C792.984 83.6484 792.789 84.1328 792.398 84.5078C792.023 84.8672 791.492 85.0469 790.805 85.0469C789.883 85.0469 789.188 84.75 788.719 84.1562C788.453 83.8281 788.273 83.2031 788.18 82.2812C788.102 81.3594 787.789 80.6562 787.242 80.1719C786.695 79.7031 785.938 79.4688 784.969 79.4688C783.406 79.4688 782.148 80.0469 781.195 81.2031C779.93 82.7344 779.297 84.7578 779.297 87.2734C779.297 89.8359 779.922 92.1016 781.172 94.0703C782.438 96.0234 784.141 97 786.281 97C787.812 97 789.188 96.4766 790.406 95.4297C791.266 94.7109 792.102 93.4062 792.914 91.5156L793.594 91.8438ZM802.148 66.6719C802.805 66.6719 803.359 66.9062 803.812 67.375C804.281 67.8281 804.516 68.3828 804.516 69.0391C804.516 69.6953 804.281 70.2578 803.812 70.7266C803.359 71.1953 802.805 71.4297 802.148 71.4297C801.492 71.4297 800.93 71.1953 800.461 70.7266C799.992 70.2578 799.758 69.6953 799.758 69.0391C799.758 68.3828 799.984 67.8281 800.438 67.375C800.906 66.9062 801.477 66.6719 802.148 66.6719ZM804.094 77.8984V95.1484C804.094 96.4922 804.188 97.3906 804.375 97.8438C804.578 98.2812 804.867 98.6094 805.242 98.8281C805.633 99.0469 806.336 99.1562 807.352 99.1562V100H796.922V99.1562C797.969 99.1562 798.672 99.0547 799.031 98.8516C799.391 98.6484 799.672 98.3125 799.875 97.8438C800.094 97.375 800.203 96.4766 800.203 95.1484V86.875C800.203 84.5469 800.133 83.0391 799.992 82.3516C799.883 81.8516 799.711 81.5078 799.477 81.3203C799.242 81.1172 798.922 81.0156 798.516 81.0156C798.078 81.0156 797.547 81.1328 796.922 81.3672L796.594 80.5234L803.062 77.8984H804.094ZM816.305 82.4453C818.82 79.4141 821.219 77.8984 823.5 77.8984C824.672 77.8984 825.68 78.1953 826.523 78.7891C827.367 79.3672 828.039 80.3281 828.539 81.6719C828.883 82.6094 829.055 84.0469 829.055 85.9844V95.1484C829.055 96.5078 829.164 97.4297 829.383 97.9141C829.555 98.3047 829.828 98.6094 830.203 98.8281C830.594 99.0469 831.305 99.1562 832.336 99.1562V100H821.719V99.1562H822.164C823.164 99.1562 823.859 99.0078 824.25 98.7109C824.656 98.3984 824.938 97.9453 825.094 97.3516C825.156 97.1172 825.188 96.3828 825.188 95.1484V86.3594C825.188 84.4062 824.93 82.9922 824.414 82.1172C823.914 81.2266 823.062 80.7812 821.859 80.7812C820 80.7812 818.148 81.7969 816.305 83.8281V95.1484C816.305 96.6016 816.391 97.5 816.562 97.8438C816.781 98.2969 817.078 98.6328 817.453 98.8516C817.844 99.0547 818.625 99.1562 819.797 99.1562V100H809.18V99.1562H809.648C810.742 99.1562 811.477 98.8828 811.852 98.3359C812.242 97.7734 812.438 96.7109 812.438 95.1484V87.1797C812.438 84.6016 812.375 83.0312 812.25 82.4688C812.141 81.9062 811.961 81.5234 811.711 81.3203C811.477 81.1172 811.156 81.0156 810.75 81.0156C810.312 81.0156 809.789 81.1328 809.18 81.3672L808.828 80.5234L815.297 77.8984H816.305V82.4453ZM837.656 86.6172C837.641 89.8047 838.414 92.3047 839.977 94.1172C841.539 95.9297 843.375 96.8359 845.484 96.8359C846.891 96.8359 848.109 96.4531 849.141 95.6875C850.188 94.9062 851.062 93.5781 851.766 91.7031L852.492 92.1719C852.164 94.3125 851.211 96.2656 849.633 98.0312C848.055 99.7812 846.078 100.656 843.703 100.656C841.125 100.656 838.914 99.6562 837.07 97.6562C835.242 95.6406 834.328 92.9375 834.328 89.5469C834.328 85.875 835.266 83.0156 837.141 80.9688C839.031 78.9062 841.398 77.875 844.242 77.875C846.648 77.875 848.625 78.6719 850.172 80.2656C851.719 81.8438 852.492 83.9609 852.492 86.6172H837.656ZM837.656 85.2578H847.594C847.516 83.8828 847.352 82.9141 847.102 82.3516C846.711 81.4766 846.125 80.7891 845.344 80.2891C844.578 79.7891 843.773 79.5391 842.93 79.5391C841.633 79.5391 840.469 80.0469 839.438 81.0625C838.422 82.0625 837.828 83.4609 837.656 85.2578Z" fill="#6A4C2D"/>
</svg>
