<svg width="1210" height="541" viewBox="0 0 1210 541" fill="none" xmlns="http://www.w3.org/2000/svg">
<path d="M87.5977 161.508V166.992C87.5977 172.125 87.5977 177.855 86.332 185.133H94.5586V192.305H79.8633V206.297H71.1445V192.305H64.1836V206.297H55.3945V192.305H35.9883V185.133H77.332C78.5273 178.453 78.668 173.32 78.668 168.539H43.0195V161.508H87.5977ZM89.2852 214.172V221.344H42.2461V200.531H51.1758V214.172H89.2852ZM133.934 164.391V171.492H98.3555V164.391H112.137V157.922H121.066V164.391H133.934ZM116.496 173.602C125.285 173.672 131.613 178.523 131.684 185.625C131.613 192.797 125.285 197.578 116.496 197.508C107.637 197.578 101.449 192.797 101.52 185.625C101.449 178.523 107.637 173.672 116.496 173.602ZM116.496 180.281C112.418 180.281 109.816 182.18 109.887 185.625C109.816 189.07 112.418 190.898 116.496 190.898C120.504 190.898 123.316 189.07 123.316 185.625C123.316 182.18 120.504 180.281 116.496 180.281ZM152.145 158.484V199.266H143.215V192.516H134.496V185.344H143.215V179.719H134.637V172.547H143.215V158.484H152.145ZM130.418 200.039C143.988 200.039 152.496 204.188 152.496 211.289C152.496 218.25 143.988 222.469 130.418 222.469C116.777 222.469 108.34 218.25 108.34 211.289C108.34 204.188 116.777 200.039 130.418 200.039ZM130.418 206.789C122.262 206.859 117.762 208.266 117.762 211.289C117.762 214.172 122.262 215.719 130.418 215.719C138.434 215.719 142.863 214.172 142.863 211.289C142.863 208.266 138.434 206.859 130.418 206.789ZM196.652 162V169.172H183.926C184.172 176.168 188.707 183.164 198.902 186.117L194.684 193.008C187.406 190.934 182.379 186.609 179.496 181.125C176.648 187.242 171.445 192.059 163.816 194.344L159.246 187.242C169.688 184.148 174.574 176.66 174.855 169.172H161.777V162H196.652ZM211.207 158.484V172.125H219.855V179.438H211.207V193.711H202.207V158.484H211.207ZM178.16 196.312V202.148H202.207V196.312H211.207V221.766H169.16V196.312H178.16ZM178.16 214.594H202.207V209.039H178.16V214.594ZM276.246 158.484V206.508H267.246V158.484H276.246ZM277.934 214.172V221.344H233.355V202.641H242.426V214.172H277.934ZM262.254 165.305V172.336H223.371V165.305H238.348V158.414H247.418V165.305H262.254ZM242.918 174.586C252.27 174.586 259.02 179.578 259.02 186.961C259.02 194.414 252.27 199.195 242.918 199.195C233.496 199.195 226.746 194.414 226.816 186.961C226.746 179.578 233.496 174.586 242.918 174.586ZM242.918 181.547C238.418 181.617 235.395 183.445 235.395 186.961C235.395 190.406 238.418 192.375 242.918 192.375C247.348 192.375 250.371 190.406 250.441 186.961C250.371 183.445 247.348 181.617 242.918 181.547ZM354.996 158.484V222.469H345.996V158.484H354.996ZM326.52 178.523C326.52 187.805 331.793 198.281 342.41 202.641L337.559 209.531C330.281 206.543 325.078 200.426 322.16 193.078C319.312 200.883 314.074 207.422 306.621 210.516L301.84 203.625C312.387 199.055 317.59 188.297 317.59 178.523V176.062H303.949V168.891H317.52V159.891H326.449V168.891H339.809V176.062H326.52V178.523ZM422.285 207.984V215.367H363.715V207.984H378.691V198.211H370.465V176.695H406.676V169.805H370.395V162.633H415.535V183.867H379.465V190.969H417.012V198.211H407.941V207.984H422.285ZM387.41 207.984H399.152V198.211H387.41V207.984ZM484.512 207.984V215.367H425.941V207.984H450.621V198.352H432.691V176.836H468.902V169.805H432.621V162.633H477.762V183.867H441.691V191.039H479.238V198.352H459.551V207.984H484.512ZM542.871 184.5V191.672H530.426V202.148C535.699 201.973 540.973 201.621 545.965 201.094L546.668 207.633C532.676 209.812 518.121 209.883 506.098 209.883L505.043 202.57C510.141 202.605 515.695 202.605 521.426 202.43V191.672H509.262V164.18H542.52V171.281H518.191V184.5H542.871ZM558.551 158.484V222.609H549.621V158.484H558.551ZM603.48 164.672V171.773H590.543C590.684 178.066 595.324 184.535 605.52 187.102L601.582 193.992C594.199 192.129 589.066 188.121 586.184 183.023C583.336 188.648 578.203 193.113 570.715 195.188L566.496 188.086C576.691 185.449 581.473 178.699 581.613 171.773H568.746V164.672H581.613V158.203H590.684V164.672H603.48ZM617.754 158.484V172.828H626.402V180.211H617.754V194.977H608.754V158.484H617.754ZM618.527 197.719V204.75H602.285C603.902 209.461 610.195 214.031 621.34 215.508L618.176 222.328C607.875 220.957 600.633 216.844 596.941 211.359C593.285 216.809 586.078 220.816 575.918 222.188L572.684 215.367C583.934 213.996 590.156 209.566 591.809 204.75H575.426V197.719H618.527ZM681.176 175.922V182.953H636.457V160.734H645.387V175.922H681.176ZM687.715 189.844V196.875H629.145V189.844H687.715ZM681.598 213.891V221.062H635.895V202.078H644.895V213.891H681.598ZM759.434 199.969V221.766H714.785V199.969H759.434ZM723.645 207.07V214.594H750.645V207.07H723.645ZM759.012 160.664V183.094H741.645V188.367H766.395V195.539H708.035V188.367H732.645V183.094H715.277V160.664H759.012ZM724.066 167.836V175.992H750.223V167.836H724.066ZM806.262 164.883V170.016C806.191 176.062 806.191 183.938 804.504 194.555L795.645 193.852C797.086 184.57 797.227 177.715 797.332 172.055H773.074V164.883H806.262ZM790.301 183.234V201.797C796.594 201.551 802.992 201.094 808.863 200.32L809.426 207C796.277 209.25 781.723 209.461 770.543 209.391L769.699 202.219C773.285 202.184 777.293 202.184 781.441 202.078V183.234H790.301ZM820.957 158.484V184.219H829.676V191.672H820.957V222.469H811.887V158.484H820.957ZM881.848 164.531V206.859H851.121V164.531H881.848ZM859.98 171.562V199.758H872.918V171.562H859.98ZM899.566 158.484V182.602H908.988V190.055H899.566V222.469H890.566V158.484H899.566ZM940.488 159.68C954.691 159.68 963.691 164.391 963.762 172.195C963.691 179.93 954.691 184.641 940.488 184.57C926.355 184.641 917.145 179.93 917.145 172.195C917.145 164.391 926.355 159.68 940.488 159.68ZM940.488 166.641C931.559 166.641 926.426 168.539 926.496 172.195C926.426 175.781 931.559 177.609 940.488 177.609C949.348 177.609 954.48 175.781 954.48 172.195C954.48 168.539 949.348 166.641 940.488 166.641ZM962.707 199.969V221.766H918.059V199.969H962.707ZM926.918 207.07V214.594H953.918V207.07H926.918ZM969.668 188.297V195.469H911.309V188.297H969.668ZM994.277 162.773C1004.4 162.703 1012 169.312 1012 178.453C1012 187.664 1004.4 194.203 994.277 194.203C984.152 194.203 976.488 187.664 976.488 178.453C976.488 169.312 984.152 162.703 994.277 162.773ZM994.277 170.508C989.215 170.508 985.348 173.461 985.418 178.453C985.348 183.516 989.215 186.398 994.277 186.398C999.34 186.398 1003.21 183.516 1003.28 178.453C1003.21 173.461 999.41 170.508 994.277 170.508ZM1027.32 158.484V222.609H1018.39V158.484H1027.32ZM973.816 202.219C985.207 202.289 1001.03 202.078 1014.74 200.18L1015.44 206.648C1001.24 209.391 986.051 209.531 974.871 209.531L973.816 202.219ZM1110.93 207.773V215.016H1052.36V207.773H1077.11V193.5H1086.11V207.773H1110.93ZM1105.79 163.336V170.578H1086.32C1087.05 179.016 1095 186.855 1108.75 188.859L1105.23 195.961C1094.02 193.992 1085.72 188.508 1081.61 180.914C1077.53 188.648 1069.3 194.273 1058.26 196.312L1054.75 189.211C1068.04 187.066 1076.02 179.051 1076.75 170.578H1057.21V163.336H1105.79ZM1165.77 158.484V184.5H1174.14V191.953H1165.77V222.469H1156.7V158.484H1165.77ZM1113.81 204.398C1118.48 204.398 1123.93 204.398 1129.63 204.258V198.773C1122.81 197.438 1118.38 193.113 1118.45 187.172C1118.38 180 1124.85 175.148 1134.2 175.148C1143.34 175.148 1149.88 180 1149.95 187.172C1149.88 193.113 1145.38 197.473 1138.63 198.773V203.906C1143.69 203.66 1148.79 203.238 1153.54 202.57L1154.1 209.109C1140.46 211.641 1125.83 211.711 1115 211.711L1113.81 204.398ZM1153.04 165.586V172.617H1115.07V165.586H1129.63V158.836H1138.63V165.586H1153.04ZM1134.2 181.969C1129.84 181.969 1126.89 183.867 1126.96 187.172C1126.89 190.547 1129.84 192.375 1134.2 192.375C1138.42 192.375 1141.3 190.547 1141.3 187.172C1141.3 183.867 1138.42 181.969 1134.2 181.969ZM296.18 258.484V282.391H305.602V289.914H296.18V322.469H287.18V258.484H296.18ZM256.664 263.547V279.156H269.953V263.547H278.883V307.633H247.734V263.547H256.664ZM256.664 300.391H269.953V286.117H256.664V300.391ZM366.422 290.758V297.859H307.852V290.758H366.422ZM359.32 259.68V276.766H324.094V280.492H360.516V287.312H315.164V270.297H350.32V266.57H315.023V259.68H359.32ZM359.602 301.797V321.766H315.375V301.797H359.602ZM324.164 308.898V314.594H350.672V308.898H324.164ZM420.914 258.555V278.172H429.562V285.484H420.914V306.297H411.914V258.555H420.914ZM408.117 265.234V272.336H370.148V265.234H384.703V258.414H393.633V265.234H408.117ZM389.133 274.586C398.414 274.586 404.883 279.578 404.883 286.961C404.883 294.344 398.414 299.195 389.133 299.195C379.781 299.195 373.242 294.344 373.242 286.961C373.242 279.578 379.781 274.586 389.133 274.586ZM389.133 281.406C384.844 281.477 381.961 283.445 382.031 286.961C381.961 290.477 384.844 292.375 389.133 292.375C393.422 292.375 396.375 290.477 396.375 286.961C396.375 283.445 393.422 281.477 389.133 281.406ZM423.234 314.172V321.344H379.43V302.641H388.359V314.172H423.234ZM453.117 262.773C463.242 262.703 470.836 269.312 470.836 278.453C470.836 287.664 463.242 294.203 453.117 294.203C442.992 294.203 435.328 287.664 435.328 278.453C435.328 269.312 442.992 262.703 453.117 262.773ZM453.117 270.508C448.055 270.508 444.188 273.461 444.258 278.453C444.188 283.516 448.055 286.398 453.117 286.398C458.18 286.398 462.047 283.516 462.117 278.453C462.047 273.461 458.25 270.508 453.117 270.508ZM486.164 258.484V322.609H477.234V258.484H486.164ZM432.656 302.219C444.047 302.289 459.867 302.078 473.578 300.18L474.281 306.648C460.078 309.391 444.891 309.531 433.711 309.531L432.656 302.219ZM548.812 258.555V306.859H539.812V301.797H527.578V295.68H539.812V258.555H548.812ZM550.219 314.172V321.344H502.547V302.219H511.477V293.711C505.746 293.957 500.297 293.992 495.445 293.992L494.391 286.891C506.133 286.82 521.953 286.68 535.453 284.992L535.945 291.391C530.883 292.234 525.645 292.832 520.477 293.219V305.383H511.477V314.172H550.219ZM515.203 260.734C524.484 260.664 531.164 265.375 531.164 272.195C531.164 279.016 524.484 283.445 515.203 283.445C505.711 283.445 499.102 279.016 499.102 272.195C499.102 265.375 505.641 260.664 515.203 260.734ZM515.203 267.273C510.633 267.273 507.539 269.031 507.609 272.195C507.539 275.289 510.633 276.977 515.203 276.977C519.492 276.977 522.586 275.289 522.656 272.195C522.586 269.031 519.492 267.273 515.203 267.273ZM610.406 258.484V322.609H601.336V258.484H610.406ZM575.672 262.984C585.305 262.984 592.477 271.844 592.477 285.766C592.477 299.828 585.305 308.617 575.672 308.617C565.828 308.617 558.656 299.828 558.727 285.766C558.656 271.844 565.828 262.984 575.672 262.984ZM575.672 271.07C570.68 271.07 567.375 276.273 567.375 285.766C567.375 295.328 570.68 300.461 575.672 300.461C580.523 300.461 583.828 295.328 583.828 285.766C583.828 276.273 580.523 271.07 575.672 271.07ZM686.414 258.484V274.234H695.062V281.758H686.414V297.086H677.414V258.484H686.414ZM686.414 299.898V321.766H644.578V299.898H686.414ZM653.438 306.93V314.594H677.555V306.93H653.438ZM673.617 264.25V271.352H635.648V264.25H650.203V258.133H659.133V264.25H673.617ZM654.633 273.32C663.914 273.32 670.383 278.031 670.383 284.781C670.383 291.742 663.914 296.383 654.633 296.383C645.211 296.383 638.742 291.742 638.742 284.781C638.742 278.031 645.211 273.32 654.633 273.32ZM654.633 280.07C650.344 280.07 647.461 281.758 647.531 284.781C647.461 288.016 650.344 289.773 654.633 289.773C658.922 289.773 661.875 288.016 661.875 284.781C661.875 281.758 658.922 280.07 654.633 280.07ZM713.625 265.797C713.555 281.758 712.008 296.102 703.852 308.758L696.891 305.102C703.465 295.152 705.434 285.449 705.891 273.039H699V265.797H713.625ZM727.969 265.797C727.934 271.422 727.828 277.012 727.336 282.461H732.82V259.891H741.258V319.656H732.82V289.703H726.422C725.051 297.543 722.625 305.066 718.195 311.992L711.375 308.195C718.512 297.297 719.988 286.012 720.305 273.039H715.453V265.797H727.969ZM753.844 258.484V322.469H745.266V258.484H753.844ZM810.867 258.484V273.883H819.516V281.336H810.867V295.961H801.867V258.484H810.867ZM777.891 298.422V303.273H801.867V298.422H810.867V321.766H768.961V298.422H777.891ZM777.891 314.734H801.867V310.164H777.891V314.734ZM798.07 264.109V271.141H760.102V264.109H774.656V258.062H783.586V264.109H798.07ZM779.086 272.969C788.367 272.969 794.836 277.469 794.836 284.289C794.836 291.109 788.367 295.609 779.086 295.609C769.664 295.609 763.195 291.109 763.195 284.289C763.195 277.469 769.664 272.969 779.086 272.969ZM779.086 279.578C774.797 279.508 771.914 281.266 771.984 284.289C771.914 287.383 774.797 289.07 779.086 289.07C783.375 289.07 786.328 287.383 786.328 284.289C786.328 281.266 783.375 279.508 779.086 279.578ZM876.117 258.484V322.469H867.188V258.484H876.117ZM834.633 264.602V298.984C843.281 298.879 852.562 298.07 861.984 296.242L863.109 303.625C851.859 305.945 841.312 306.719 831.398 306.648H825.773V264.602H834.633ZM935.039 258.484V282.25H944.461V289.562H935.039V322.609H926.039V258.484H935.039ZM917.109 264.391V271.633H896.016V299.688C905.297 299.582 912.961 299.16 921.469 297.648L922.453 305.172C912.539 306.859 903.82 307.141 892.5 307.07H887.086V264.391H917.109ZM955.078 316.633C951.773 316.633 949.102 313.961 949.172 310.727C949.102 307.492 951.773 304.891 955.078 304.891C958.172 304.891 960.914 307.492 960.914 310.727C960.914 313.961 958.172 316.633 955.078 316.633Z" fill="white"/>
<path d="M221.395 412.453V421.594H226V424.371H221.395V435.27H218.055V412.453H221.395ZM212.113 415.16V417.867H201.355V427.043C207.49 427.061 210.953 426.867 214.891 426.059L215.277 428.766C211.023 429.609 207.297 429.82 200.547 429.82H198.051V415.16H212.113ZM222.73 440.613V443.32H201.426V432.914H204.766V440.613H222.73ZM243.824 414.668C243.824 418.605 248.887 422.402 254.863 423.281L253.562 425.918C248.57 425.092 244.158 422.508 242.137 418.957C240.133 422.578 235.686 425.162 230.676 425.988L229.41 423.352C235.387 422.438 240.414 418.746 240.414 414.668V413.297H243.824V414.668ZM256.551 428.344V431.051H244.035V437.133H240.73V431.051H227.723V428.344H256.551ZM253.352 440.613V443.32H231.309V434.18H234.648V440.613H253.352ZM283.621 412.523V422.648H288.191V425.426H283.621V436.078H280.281V412.523H283.621ZM277.68 416.18V418.887H258.906V416.18H266.641V412.488H269.98V416.18H277.68ZM268.293 420.398C272.828 420.398 275.922 422.754 275.922 426.34C275.922 429.926 272.828 432.246 268.293 432.246C263.723 432.246 260.629 429.926 260.629 426.34C260.629 422.754 263.723 420.398 268.293 420.398ZM268.293 422.965C265.621 422.965 263.828 424.266 263.863 426.34C263.828 428.379 265.621 429.645 268.293 429.645C270.965 429.645 272.758 428.379 272.793 426.34C272.758 424.266 270.965 422.965 268.293 422.965ZM284.957 440.613V443.32H263.652V434.215H266.992V440.613H284.957ZM327.496 427.324V430.031H298.773V427.324H327.496ZM313.117 432.457C319.902 432.457 323.98 434.566 323.98 438.223C323.98 441.879 319.902 443.953 313.117 443.918C306.297 443.953 302.184 441.879 302.184 438.223C302.184 434.566 306.297 432.457 313.117 432.457ZM313.117 435.059C308.301 435.094 305.559 436.184 305.559 438.223C305.559 440.227 308.301 441.281 313.117 441.281C317.863 441.281 320.641 440.227 320.641 438.223C320.641 436.184 317.863 435.094 313.117 435.059ZM324.93 414.035V416.777H315.367C315.736 419.836 320.201 422.438 326.02 423.035L324.824 425.672C319.375 425.039 314.857 422.736 313.152 419.414C311.395 422.736 306.895 425.039 301.445 425.672L300.285 423.035C305.998 422.438 310.498 419.854 310.902 416.777H301.41V414.035H324.93ZM340.75 417.516C340.75 421.664 343.633 425.496 348.344 427.043L346.551 429.68C343.105 428.467 340.521 426.006 339.168 422.895C337.779 426.428 335.107 429.188 331.434 430.559L329.641 427.887C334.562 426.129 337.41 421.945 337.445 417.234V414.141H340.75V417.516ZM354.637 412.488V420.398H359.207V423.211H354.637V431.508H351.297V412.488H354.637ZM344.477 432.246C350.945 432.246 354.918 434.391 354.918 438.082C354.918 441.809 350.945 443.953 344.477 443.918C337.938 443.953 333.895 441.809 333.895 438.082C333.895 434.391 337.938 432.246 344.477 432.246ZM344.477 434.883C339.906 434.883 337.199 436.078 337.234 438.082C337.199 440.156 339.906 441.281 344.477 441.316C349.012 441.281 351.648 440.156 351.648 438.082C351.648 436.078 349.012 434.883 344.477 434.883ZM379.352 413.895C383.957 413.895 387.191 416.426 387.227 420.188C387.191 423.387 384.766 425.742 381.109 426.305V429.082C383.904 428.941 386.699 428.695 389.301 428.309L389.547 430.77C382.938 431.965 375.52 432.07 370.105 432.07L369.754 429.363C372.109 429.381 374.869 429.363 377.77 429.258V426.34C374.008 425.812 371.477 423.439 371.512 420.188C371.477 416.426 374.746 413.895 379.352 413.895ZM379.352 416.461C376.574 416.461 374.605 417.902 374.641 420.188C374.605 422.402 376.574 423.879 379.352 423.879C382.164 423.879 384.062 422.402 384.062 420.188C384.062 417.902 382.164 416.461 379.352 416.461ZM394.574 412.523V422.93H399.074V425.742H394.574V436.605H391.234V412.523H394.574ZM395.699 440.578V443.32H374.219V434.496H377.559V440.578H395.699ZM425.582 412.488V425.672H430.328V428.484H425.582V443.988H422.242V412.488H425.582ZM400.516 435.41C402.994 435.41 405.877 435.41 408.883 435.305V432.105C405.332 431.613 403.012 429.469 403.047 426.41C403.012 422.859 406.07 420.504 410.57 420.504C415.035 420.504 418.129 422.859 418.164 426.41C418.129 429.469 415.773 431.631 412.223 432.141V435.164C415.018 435.059 417.83 434.83 420.449 434.461L420.66 436.922C413.84 438.152 406.457 438.188 401.043 438.188L400.516 435.41ZM419.992 416.215V418.887H401.113V416.215H408.883V412.559H412.223V416.215H419.992ZM410.57 423.105C407.934 423.105 406.176 424.406 406.176 426.41C406.176 428.414 407.934 429.645 410.57 429.645C413.207 429.645 414.965 428.414 414.965 426.41C414.965 424.406 413.207 423.105 410.57 423.105ZM460.809 426.938V429.504H431.98V426.938H460.809ZM457.258 431.719V438.645H438.766V441.246H458.242V443.602H435.426V436.43H453.953V434.109H435.391V431.719H457.258ZM457.188 413.297V420.117H438.977V422.508H457.715V424.863H435.672V417.902H453.848V415.652H435.602V413.297H457.188ZM498.18 432.035V443.602H477.543V432.035H498.18ZM480.848 434.707V440.895H494.91V434.707H480.848ZM477.086 414.316V425.988C481.639 425.988 485.77 425.654 490.27 424.758L490.656 427.57C485.734 428.59 481.305 428.836 476.242 428.836H473.781V414.316H477.086ZM498.18 412.488V430.594H494.84V420.926H486.191V418.219H494.84V412.488H498.18ZM511.574 414.844C515.846 414.844 518.975 418.465 519.484 424.301H525.988V412.488H529.293V444.059H525.988V427.008H519.52C519.15 433.143 515.951 436.957 511.574 436.957C506.863 436.957 503.559 432.668 503.594 425.883C503.559 419.133 506.863 414.844 511.574 414.844ZM511.574 417.832C508.727 417.832 506.758 420.926 506.758 425.883C506.758 430.875 508.727 433.969 511.574 433.969C514.422 433.969 516.391 430.875 516.391 425.883C516.391 420.926 514.422 417.832 511.574 417.832ZM569.195 412.523V435.727H565.855V424.793H559.316V422.016H565.855V412.523H569.195ZM559.527 414.879C559.492 423.105 553.832 429.293 544.797 432.211L543.391 429.539C550.404 427.271 555.168 422.982 555.871 417.656H545.008V414.879H559.527ZM570.004 440.613V443.32H548.91V433.336H552.285V440.613H570.004ZM598.797 412.488V420.434H603.367V423.141H598.797V431.191H595.457V412.488H598.797ZM590.148 414.738C590.148 422.895 584.629 428.766 575.383 431.438L574.012 428.73C581.377 426.639 585.93 422.543 586.527 417.445H575.418V414.738H590.148ZM588.742 431.543C595.105 431.543 599.148 433.898 599.148 437.73C599.148 441.598 595.105 443.953 588.742 443.953C582.414 443.953 578.266 441.598 578.301 437.73C578.266 433.898 582.414 431.543 588.742 431.543ZM588.742 434.18C584.348 434.18 581.57 435.516 581.605 437.73C581.57 439.945 584.348 441.316 588.742 441.316C593.102 441.316 595.879 439.945 595.879 437.73C595.879 435.516 593.102 434.18 588.742 434.18ZM629.91 412.523V422.648H634.48V425.426H629.91V436.078H626.57V412.523H629.91ZM623.969 416.18V418.887H605.195V416.18H612.93V412.488H616.27V416.18H623.969ZM614.582 420.398C619.117 420.398 622.211 422.754 622.211 426.34C622.211 429.926 619.117 432.246 614.582 432.246C610.012 432.246 606.918 429.926 606.918 426.34C606.918 422.754 610.012 420.398 614.582 420.398ZM614.582 422.965C611.91 422.965 610.117 424.266 610.152 426.34C610.117 428.379 611.91 429.645 614.582 429.645C617.254 429.645 619.047 428.379 619.082 426.34C619.047 424.266 617.254 422.965 614.582 422.965ZM631.246 440.613V443.32H609.941V434.215H613.281V440.613H631.246ZM653.992 413.543C658.738 413.578 662.219 416.496 662.254 420.609C662.219 424.758 658.738 427.641 653.992 427.641C649.211 427.641 645.695 424.758 645.695 420.609C645.695 416.496 649.211 413.578 653.992 413.543ZM653.992 416.355C651.074 416.32 648.93 418.043 648.965 420.609C648.93 423.211 651.074 424.934 653.992 424.934C656.875 424.934 659.02 423.211 659.02 420.609C659.02 418.043 656.875 416.32 653.992 416.355ZM671.184 412.488V428.52H667.844V412.488H671.184ZM671.184 429.961V437.906H653.816V440.93H672.238V443.602H650.582V435.41H667.879V432.633H650.477V429.961H671.184ZM687.039 417.516C687.039 421.664 689.922 425.496 694.633 427.043L692.84 429.68C689.395 428.467 686.811 426.006 685.457 422.895C684.068 426.428 681.396 429.188 677.723 430.559L675.93 427.887C680.852 426.129 683.699 421.945 683.734 417.234V414.141H687.039V417.516ZM700.926 412.488V420.398H705.496V423.211H700.926V431.508H697.586V412.488H700.926ZM690.766 432.246C697.234 432.246 701.207 434.391 701.207 438.082C701.207 441.809 697.234 443.953 690.766 443.918C684.227 443.953 680.184 441.809 680.184 438.082C680.184 434.391 684.227 432.246 690.766 432.246ZM690.766 434.883C686.195 434.883 683.488 436.078 683.523 438.082C683.488 440.156 686.195 441.281 690.766 441.316C695.301 441.281 697.938 440.156 697.938 438.082C697.938 436.078 695.301 434.883 690.766 434.883ZM721.633 414.387C728.242 414.387 733.27 417.867 733.27 423.176C733.27 428.484 728.242 432 721.633 431.965C715.023 432 710.031 428.484 710.031 423.176C710.031 417.867 715.023 414.387 721.633 414.387ZM721.633 417.094C716.816 417.059 713.195 419.52 713.23 423.176C713.195 426.867 716.816 429.223 721.633 429.223C726.449 429.223 730.035 426.867 730.035 423.176C730.035 419.52 726.449 417.059 721.633 417.094ZM736.117 437.133V439.91H707.289V437.133H736.117ZM767.23 437.414V440.227H738.402V437.414H751.094V431.895H741.918V421.875H760.41V417.445H741.848V414.703H763.715V424.547H745.223V429.152H764.453V431.895H754.398V437.414H767.23ZM803.652 420.539V423.211H794.336V425.918H807.027V428.59H778.305V425.918H790.996V423.211H782.066V413.648H803.336V416.355H785.406V420.539H803.652ZM803.406 430.945V438.293H785.055V441.07H804.285V443.672H781.785V435.902H800.102V433.441H781.75V430.945H803.406ZM817.855 414.844C822.566 414.844 825.906 419.133 825.941 425.883C825.906 432.668 822.566 436.957 817.855 436.957C813.145 436.957 809.77 432.668 809.805 425.883C809.77 419.133 813.145 414.844 817.855 414.844ZM817.855 417.832C814.973 417.832 813.004 420.926 813.004 425.883C813.004 430.875 814.973 433.969 817.855 433.969C820.773 433.969 822.742 430.875 822.742 425.883C822.742 420.926 820.773 417.832 817.855 417.832ZM833.957 412.488V424.828H839.02V427.641H833.957V443.988H830.617V412.488H833.957ZM865.281 412.488V419.309H869.852V422.086H865.281V428.414H861.941V412.488H865.281ZM856.703 413.895C856.703 421.98 851.078 427.148 841.762 429.258L840.496 426.48C848.23 424.828 852.52 421.154 853.012 416.637H841.973V413.895H856.703ZM865.281 429.785V437.871H848.266V441H866.371V443.672H844.996V435.305H861.977V432.457H844.926V429.785H865.281ZM896.57 415.266C896.535 419.449 901.668 423.387 907.855 424.195L906.555 426.938C901.404 426.111 896.869 423.439 894.848 419.73C892.773 423.457 888.256 426.111 883.141 426.938L881.805 424.195C887.992 423.387 893.055 419.484 893.09 415.266V413.543H896.57V415.266ZM909.156 430.031V432.773H896.359V443.988H893.09V432.773H880.434V430.031H909.156ZM931.27 433.301C931.27 436.008 932.605 438.873 935.453 440.578C938.354 438.732 939.777 435.709 939.777 433.301V431.789H943.047V433.301C943.047 436.57 945.191 439.734 949.305 441.07L947.652 443.531C944.541 442.459 942.432 440.367 941.324 437.766C940.322 440.314 938.441 442.617 935.559 443.812C932.535 442.67 930.619 440.438 929.652 437.871C928.51 440.35 926.436 442.441 923.465 443.531L921.777 441.07C925.82 439.629 928 436.359 928.035 433.301V431.789H931.27V433.301ZM946.457 412.523V430.453H943.117V412.523H946.457ZM929.371 414.246C934.188 414.246 937.738 417.305 937.738 421.699C937.738 426.059 934.188 429.082 929.371 429.082C924.555 429.082 920.969 426.059 920.969 421.699C920.969 417.305 924.555 414.246 929.371 414.246ZM929.371 417.094C926.383 417.059 924.238 418.922 924.238 421.699C924.238 424.441 926.383 426.305 929.371 426.305C932.324 426.305 934.469 424.441 934.469 421.699C934.469 418.922 932.324 417.059 929.371 417.094ZM976.973 427.008V429.68H967.445V437.379H980.277V440.121H951.449V437.379H964.141V429.68H955.035V414.914H976.691V417.621H958.375V427.008H976.973ZM1011.36 429.68V432.387H982.527V429.68H995.289V426.691H986.219V418.676H1004.39V415.863H986.148V413.227H1007.73V421.137H989.523V424.09H1008.37V426.691H998.594V429.68H1011.36ZM1007.91 434.602V443.742H1004.54V437.273H985.762V434.602H1007.91ZM312.432 474.352V476.848C312.432 479.52 312.432 482.648 311.658 486.797H316.088V489.539H287.26V486.797H308.283C309.109 482.701 309.127 479.713 309.127 477.059H290.881V474.352H312.432ZM313.381 500.578V503.32H291.021V492.809H294.326V500.578H313.381ZM325.439 473.684V477.41H340.029V473.684H343.369V486.41H334.369V489.504H347.096V492.246H318.373V489.504H331.064V486.41H322.135V473.684H325.439ZM325.439 483.703H340.029V480.012H325.439V483.703ZM343.861 500.613V503.32H321.994V494.496H325.369V500.613H343.861ZM360.771 478.078C360.771 482.051 363.619 485.953 368.365 487.57L366.643 490.172C363.109 488.941 360.49 486.428 359.119 483.316C357.748 486.779 354.988 489.557 351.244 490.875L349.521 488.238C354.373 486.586 357.361 482.367 357.361 478.113V477.234H350.541V474.527H367.521V477.234H360.771V478.078ZM375.748 492.914V503.988H372.408V495.621H354.408V492.914H375.748ZM375.748 472.488V491.332H372.408V483.246H366.572V480.504H372.408V472.488H375.748ZM406.721 472.523V495.41H403.381V472.523H406.721ZM407.67 500.613V503.32H386.119V493.09H389.494V500.613H407.67ZM389.635 474.633C394.381 474.633 398.002 477.867 398.002 482.438C398.002 487.078 394.381 490.277 389.635 490.277C384.889 490.277 381.232 487.078 381.232 482.438C381.232 477.867 384.889 474.633 389.635 474.633ZM389.635 477.551C386.682 477.551 384.502 479.555 384.502 482.438C384.502 485.391 386.682 487.359 389.635 487.359C392.518 487.359 394.732 485.391 394.732 482.438C394.732 479.555 392.518 477.551 389.635 477.551ZM446.764 472.523V495.727H443.424V484.793H436.885V482.016H443.424V472.523H446.764ZM437.096 474.879C437.061 483.105 431.4 489.293 422.365 492.211L420.959 489.539C427.973 487.271 432.736 482.982 433.439 477.656H422.576V474.879H437.096ZM447.572 500.613V503.32H426.479V493.336H429.854V500.613H447.572ZM476.365 472.488V480.434H480.936V483.141H476.365V491.191H473.025V472.488H476.365ZM467.717 474.738C467.717 482.895 462.197 488.766 452.951 491.438L451.58 488.73C458.945 486.639 463.498 482.543 464.096 477.445H452.986V474.738H467.717ZM466.311 491.543C472.674 491.543 476.717 493.898 476.717 497.73C476.717 501.598 472.674 503.953 466.311 503.953C459.982 503.953 455.834 501.598 455.869 497.73C455.834 493.898 459.982 491.543 466.311 491.543ZM466.311 494.18C461.916 494.18 459.139 495.516 459.174 497.73C459.139 499.945 461.916 501.316 466.311 501.316C470.67 501.316 473.447 499.945 473.447 497.73C473.447 495.516 470.67 494.18 466.311 494.18ZM492.994 474.738C497.986 474.703 501.537 477.797 501.572 482.227C501.537 486.656 497.986 489.75 492.994 489.75C488.037 489.75 484.381 486.656 484.416 482.227C484.381 477.797 488.037 474.703 492.994 474.738ZM492.994 477.621C489.936 477.621 487.686 479.449 487.721 482.227C487.686 485.004 489.936 486.832 492.994 486.832C496.053 486.832 498.303 485.004 498.303 482.227C498.303 479.449 496.053 477.621 492.994 477.621ZM508.779 472.488V504.059H505.439V472.488H508.779ZM482.904 494.496C488.635 494.496 496.58 494.426 503.471 493.441L503.717 495.867C496.58 497.238 488.951 497.273 483.326 497.273L482.904 494.496ZM547.17 472.488V484.688H552.232V487.5H547.17V503.988H543.83V472.488H547.17ZM527.131 475.125V483.211H535.463V475.125H538.768V496.5H523.826V475.125H527.131ZM527.131 493.758H535.463V485.848H527.131V493.758ZM582.537 489.785V492.492H553.709V489.785H582.537ZM579.584 500.613V503.32H557.471V494.742H560.811V500.613H579.584ZM578.916 473.438V481.523H560.705V484.617H579.549V487.184H557.4V479.098H575.576V476.074H557.33V473.438H578.916ZM619.768 472.488V488.52H616.428V472.488H619.768ZM610.311 473.895C610.275 482.156 604.896 487.043 595.369 489.152L594.139 486.445C602.031 484.793 606.145 481.26 606.654 476.637H595.791V473.895H610.311ZM619.768 489.926V497.836H602.471V501.035H620.822V503.672H599.166V495.34H616.428V492.562H599.061V489.926H619.768ZM635.729 477.832C635.693 481.734 638.541 485.391 643.357 486.867L641.775 489.434C638.137 488.309 635.465 485.953 634.076 482.965C632.688 486.27 629.928 488.854 626.131 490.102L624.443 487.465C629.33 485.883 632.354 482.051 632.354 477.867V477.199H625.463V474.457H642.514V477.199H635.729V477.832ZM649.51 472.488V479.59H654.08V482.332H649.51V489.75H646.17V472.488H649.51ZM632.635 491.191V494.742H646.17V491.191H649.51V503.602H629.33V491.191H632.635ZM632.635 500.895H646.17V497.344H632.635V500.895ZM681.959 472.488V504.059H678.619V472.488H681.959ZM665.119 474.844C669.795 474.844 673.24 479.133 673.24 485.883C673.24 492.668 669.795 496.957 665.119 496.957C660.373 496.957 656.963 492.668 656.963 485.883C656.963 479.133 660.373 474.844 665.119 474.844ZM665.119 477.832C662.201 477.832 660.197 480.926 660.197 485.883C660.197 490.875 662.201 493.969 665.119 493.969C668.002 493.969 670.006 490.875 670.006 485.883C670.006 480.926 668.002 477.832 665.119 477.832ZM711.525 472.488V485.039H716.412V487.816H711.525V503.953H708.186V472.488H711.525ZM703.299 475.793C703.264 484.898 699.256 493.02 688.885 498.152L687.021 495.551C694.914 491.613 699.203 485.918 699.889 478.57H688.604V475.793H703.299ZM745.662 485.812V488.555H739.018V494.391C741.936 494.25 744.871 494.057 747.631 493.758L747.877 496.219C740.951 497.273 733.463 497.344 727.486 497.379L727.064 494.602C729.719 494.602 732.654 494.584 735.678 494.496V488.555H729.35V475.406H745.521V478.113H732.654V485.812H745.662ZM752.939 472.488V504.059H749.6V472.488H752.939ZM766.545 474.844C770.816 474.844 773.945 478.465 774.455 484.301H780.959V472.488H784.264V504.059H780.959V487.008H774.49C774.121 493.143 770.922 496.957 766.545 496.957C761.834 496.957 758.529 492.668 758.564 485.883C758.529 479.133 761.834 474.844 766.545 474.844ZM766.545 477.832C763.697 477.832 761.729 480.926 761.729 485.883C761.729 490.875 763.697 493.969 766.545 493.969C769.393 493.969 771.361 490.875 771.361 485.883C771.361 480.926 769.393 477.832 766.545 477.832ZM814.639 487.43V490.172H792.701V475.301H814.357V478.043H796.006V487.43H814.639ZM817.943 497.062V499.84H789.115V497.062H817.943ZM846.35 472.523V489.891H843.01V472.523H846.35ZM836.295 474V482.789H825.15V486.516C830.652 486.48 834.713 486.34 839.494 485.566L839.916 488.273C834.783 489.117 830.459 489.258 824.518 489.293H821.881V480.188H832.99V476.707H821.811V474H836.295ZM829.018 491.367V494.777H843.045V491.367H846.35V503.602H825.678V491.367H829.018ZM829.018 500.895H843.045V497.414H829.018V500.895ZM877.498 472.488V503.988H874.158V472.488H877.498ZM856.58 475.547V493.09C861.168 493.055 866.002 492.686 871.064 491.648L871.521 494.461C865.932 495.586 860.869 495.973 855.912 495.973H853.275V475.547H856.58ZM906.994 472.488V484.688H912.057V487.43H906.994V504.059H903.654V472.488H906.994ZM898.521 475.512V478.219H887.131V493.441C892.422 493.424 896.395 493.195 900.877 492.387L901.299 495.199C896.377 496.078 892.193 496.254 886.322 496.219H883.791V475.512H898.521ZM917.154 501.246C915.783 501.246 914.623 500.121 914.658 498.75C914.623 497.379 915.783 496.254 917.154 496.254C918.49 496.254 919.65 497.379 919.65 498.75C919.65 500.121 918.49 501.246 917.154 501.246Z" fill="white"/>
<path d="M377.297 73.7812C379.5 74.25 381.148 75 382.242 76.0312C383.758 77.4688 384.516 79.2266 384.516 81.3047C384.516 82.8828 384.016 84.3984 383.016 85.8516C382.016 87.2891 380.641 88.3438 378.891 89.0156C377.156 89.6719 374.5 90 370.922 90H355.922V89.1328H357.117C358.445 89.1328 359.398 88.7109 359.977 87.8672C360.336 87.3203 360.516 86.1562 360.516 84.375V63.8438C360.516 61.875 360.289 60.6328 359.836 60.1172C359.227 59.4297 358.32 59.0859 357.117 59.0859H355.922V58.2188H369.656C372.219 58.2188 374.273 58.4062 375.82 58.7812C378.164 59.3438 379.953 60.3438 381.188 61.7812C382.422 63.2031 383.039 64.8438 383.039 66.7031C383.039 68.2969 382.555 69.7266 381.586 70.9922C380.617 72.2422 379.188 73.1719 377.297 73.7812ZM365.016 72.5156C365.594 72.625 366.25 72.7109 366.984 72.7734C367.734 72.8203 368.555 72.8438 369.445 72.8438C371.727 72.8438 373.438 72.6016 374.578 72.1172C375.734 71.6172 376.617 70.8594 377.227 69.8438C377.836 68.8281 378.141 67.7188 378.141 66.5156C378.141 64.6562 377.383 63.0703 375.867 61.7578C374.352 60.4453 372.141 59.7891 369.234 59.7891C367.672 59.7891 366.266 59.9609 365.016 60.3047V72.5156ZM365.016 87.7031C366.828 88.125 368.617 88.3359 370.383 88.3359C373.211 88.3359 375.367 87.7031 376.852 86.4375C378.336 85.1562 379.078 83.5781 379.078 81.7031C379.078 80.4688 378.742 79.2812 378.07 78.1406C377.398 77 376.305 76.1016 374.789 75.4453C373.273 74.7891 371.398 74.4609 369.164 74.4609C368.195 74.4609 367.367 74.4766 366.68 74.5078C365.992 74.5391 365.438 74.5938 365.016 74.6719V87.7031ZM400.805 86.9062C398.602 88.6094 397.219 89.5938 396.656 89.8594C395.812 90.25 394.914 90.4453 393.961 90.4453C392.477 90.4453 391.25 89.9375 390.281 88.9219C389.328 87.9062 388.852 86.5703 388.852 84.9141C388.852 83.8672 389.086 82.9609 389.555 82.1953C390.195 81.1328 391.305 80.1328 392.883 79.1953C394.477 78.2578 397.117 77.1172 400.805 75.7734V74.9297C400.805 72.7891 400.461 71.3203 399.773 70.5234C399.102 69.7266 398.117 69.3281 396.82 69.3281C395.836 69.3281 395.055 69.5938 394.477 70.125C393.883 70.6562 393.586 71.2656 393.586 71.9531L393.633 73.3125C393.633 74.0312 393.445 74.5859 393.07 74.9766C392.711 75.3672 392.234 75.5625 391.641 75.5625C391.062 75.5625 390.586 75.3594 390.211 74.9531C389.852 74.5469 389.672 73.9922 389.672 73.2891C389.672 71.9453 390.359 70.7109 391.734 69.5859C393.109 68.4609 395.039 67.8984 397.523 67.8984C399.43 67.8984 400.992 68.2188 402.211 68.8594C403.133 69.3438 403.812 70.1016 404.25 71.1328C404.531 71.8047 404.672 73.1797 404.672 75.2578V82.5469C404.672 84.5938 404.711 85.8516 404.789 86.3203C404.867 86.7734 404.992 87.0781 405.164 87.2344C405.352 87.3906 405.562 87.4688 405.797 87.4688C406.047 87.4688 406.266 87.4141 406.453 87.3047C406.781 87.1016 407.414 86.5312 408.352 85.5938V86.9062C406.602 89.25 404.93 90.4219 403.336 90.4219C402.57 90.4219 401.961 90.1562 401.508 89.625C401.055 89.0938 400.82 88.1875 400.805 86.9062ZM400.805 85.3828V77.2031C398.445 78.1406 396.922 78.8047 396.234 79.1953C395 79.8828 394.117 80.6016 393.586 81.3516C393.055 82.1016 392.789 82.9219 392.789 83.8125C392.789 84.9375 393.125 85.875 393.797 86.625C394.469 87.3594 395.242 87.7266 396.117 87.7266C397.305 87.7266 398.867 86.9453 400.805 85.3828ZM416.25 67.8984V72.7266C418.047 69.5078 419.891 67.8984 421.781 67.8984C422.641 67.8984 423.352 68.1641 423.914 68.6953C424.477 69.2109 424.758 69.8125 424.758 70.5C424.758 71.1094 424.555 71.625 424.148 72.0469C423.742 72.4688 423.258 72.6797 422.695 72.6797C422.148 72.6797 421.531 72.4141 420.844 71.8828C420.172 71.3359 419.672 71.0625 419.344 71.0625C419.062 71.0625 418.758 71.2188 418.43 71.5312C417.727 72.1719 417 73.2266 416.25 74.6953V84.9844C416.25 86.1719 416.398 87.0703 416.695 87.6797C416.898 88.1016 417.258 88.4531 417.773 88.7344C418.289 89.0156 419.031 89.1562 420 89.1562V90H409.008V89.1562C410.102 89.1562 410.914 88.9844 411.445 88.6406C411.836 88.3906 412.109 87.9922 412.266 87.4453C412.344 87.1797 412.383 86.4219 412.383 85.1719V76.8516C412.383 74.3516 412.328 72.8672 412.219 72.3984C412.125 71.9141 411.938 71.5625 411.656 71.3438C411.391 71.125 411.055 71.0156 410.648 71.0156C410.164 71.0156 409.617 71.1328 409.008 71.3672L408.773 70.5234L415.266 67.8984H416.25ZM429.562 76.6172C429.547 79.8047 430.32 82.3047 431.883 84.1172C433.445 85.9297 435.281 86.8359 437.391 86.8359C438.797 86.8359 440.016 86.4531 441.047 85.6875C442.094 84.9062 442.969 83.5781 443.672 81.7031L444.398 82.1719C444.07 84.3125 443.117 86.2656 441.539 88.0312C439.961 89.7812 437.984 90.6562 435.609 90.6562C433.031 90.6562 430.82 89.6562 428.977 87.6562C427.148 85.6406 426.234 82.9375 426.234 79.5469C426.234 75.875 427.172 73.0156 429.047 70.9688C430.938 68.9062 433.305 67.875 436.148 67.875C438.555 67.875 440.531 68.6719 442.078 70.2656C443.625 71.8438 444.398 73.9609 444.398 76.6172H429.562ZM429.562 75.2578H439.5C439.422 73.8828 439.258 72.9141 439.008 72.3516C438.617 71.4766 438.031 70.7891 437.25 70.2891C436.484 69.7891 435.68 69.5391 434.836 69.5391C433.539 69.5391 432.375 70.0469 431.344 71.0625C430.328 72.0625 429.734 73.4609 429.562 75.2578ZM466.102 68.5312V81.5391C466.102 84.0234 466.156 85.5469 466.266 86.1094C466.391 86.6562 466.578 87.0391 466.828 87.2578C467.094 87.4766 467.398 87.5859 467.742 87.5859C468.227 87.5859 468.773 87.4531 469.383 87.1875L469.711 88.0078L463.289 90.6562H462.234V86.1094C460.391 88.1094 458.984 89.3672 458.016 89.8828C457.047 90.3984 456.023 90.6562 454.945 90.6562C453.742 90.6562 452.695 90.3125 451.805 89.625C450.93 88.9219 450.32 88.0234 449.977 86.9297C449.633 85.8359 449.461 84.2891 449.461 82.2891V72.7031C449.461 71.6875 449.352 70.9844 449.133 70.5938C448.914 70.2031 448.586 69.9062 448.148 69.7031C447.727 69.4844 446.953 69.3828 445.828 69.3984V68.5312H453.352V82.8984C453.352 84.8984 453.695 86.2109 454.383 86.8359C455.086 87.4609 455.93 87.7734 456.914 87.7734C457.586 87.7734 458.344 87.5625 459.188 87.1406C460.047 86.7188 461.062 85.9141 462.234 84.7266V72.5625C462.234 71.3438 462.008 70.5234 461.555 70.1016C461.117 69.6641 460.195 69.4297 458.789 69.3984V68.5312H466.102ZM477.656 72.4688C479.219 70.9062 480.141 70.0078 480.422 69.7734C481.125 69.1797 481.883 68.7188 482.695 68.3906C483.508 68.0625 484.312 67.8984 485.109 67.8984C486.453 67.8984 487.609 68.2891 488.578 69.0703C489.547 69.8516 490.195 70.9844 490.523 72.4688C492.133 70.5938 493.492 69.3672 494.602 68.7891C495.711 68.1953 496.852 67.8984 498.023 67.8984C499.164 67.8984 500.172 68.1953 501.047 68.7891C501.938 69.3672 502.641 70.3203 503.156 71.6484C503.5 72.5547 503.672 73.9766 503.672 75.9141V85.1484C503.672 86.4922 503.773 87.4141 503.977 87.9141C504.133 88.2578 504.422 88.5547 504.844 88.8047C505.266 89.0391 505.953 89.1562 506.906 89.1562V90H496.312V89.1562H496.758C497.68 89.1562 498.398 88.9766 498.914 88.6172C499.273 88.3672 499.531 87.9688 499.688 87.4219C499.75 87.1562 499.781 86.3984 499.781 85.1484V75.9141C499.781 74.1641 499.57 72.9297 499.148 72.2109C498.539 71.2109 497.562 70.7109 496.219 70.7109C495.391 70.7109 494.555 70.9219 493.711 71.3438C492.883 71.75 491.875 72.5156 490.688 73.6406L490.641 73.8984L490.688 74.9062V85.1484C490.688 86.6172 490.766 87.5312 490.922 87.8906C491.094 88.25 491.406 88.5547 491.859 88.8047C492.312 89.0391 493.086 89.1562 494.18 89.1562V90H483.328V89.1562C484.516 89.1562 485.328 89.0156 485.766 88.7344C486.219 88.4531 486.531 88.0312 486.703 87.4688C486.781 87.2031 486.82 86.4297 486.82 85.1484V75.9141C486.82 74.1641 486.562 72.9062 486.047 72.1406C485.359 71.1406 484.398 70.6406 483.164 70.6406C482.32 70.6406 481.484 70.8672 480.656 71.3203C479.359 72.0078 478.359 72.7812 477.656 73.6406V85.1484C477.656 86.5547 477.75 87.4688 477.938 87.8906C478.141 88.3125 478.43 88.6328 478.805 88.8516C479.195 89.0547 479.977 89.1562 481.148 89.1562V90H470.531V89.1562C471.516 89.1562 472.203 89.0547 472.594 88.8516C472.984 88.6328 473.281 88.2969 473.484 87.8438C473.688 87.375 473.789 86.4766 473.789 85.1484V76.9453C473.789 74.5859 473.719 73.0625 473.578 72.375C473.469 71.8594 473.297 71.5078 473.062 71.3203C472.828 71.1172 472.508 71.0156 472.102 71.0156C471.664 71.0156 471.141 71.1328 470.531 71.3672L470.18 70.5234L476.648 67.8984H477.656V72.4688ZM533.484 72.375L545.203 84.0234C547.125 85.9453 548.766 87.2578 550.125 87.9609C551.484 88.6484 552.844 89.0391 554.203 89.1328V90H539.086V89.1328C539.992 89.1328 540.641 88.9844 541.031 88.6875C541.438 88.375 541.641 88.0312 541.641 87.6562C541.641 87.2812 541.562 86.9453 541.406 86.6484C541.266 86.3516 540.781 85.7969 539.953 84.9844L528.984 74.1328V84.375C528.984 85.9844 529.086 87.0469 529.289 87.5625C529.445 87.9531 529.773 88.2891 530.273 88.5703C530.945 88.9453 531.656 89.1328 532.406 89.1328H533.484V90H519.938V89.1328H521.062C522.375 89.1328 523.328 88.75 523.922 87.9844C524.297 87.4844 524.484 86.2812 524.484 84.375V63.8438C524.484 62.2344 524.383 61.1641 524.18 60.6328C524.023 60.2578 523.703 59.9297 523.219 59.6484C522.531 59.2734 521.812 59.0859 521.062 59.0859H519.938V58.2188H533.484V59.0859H532.406C531.672 59.0859 530.961 59.2656 530.273 59.625C529.789 59.875 529.453 60.25 529.266 60.75C529.078 61.25 528.984 62.2812 528.984 63.8438V73.5703C529.297 73.2734 530.367 72.2812 532.195 70.5938C536.836 66.3438 539.641 63.5078 540.609 62.0859C541.031 61.4609 541.242 60.9141 541.242 60.4453C541.242 60.0859 541.078 59.7734 540.75 59.5078C540.422 59.2266 539.867 59.0859 539.086 59.0859H538.359V58.2188H550.031V59.0859C549.344 59.1016 548.719 59.1953 548.156 59.3672C547.594 59.5391 546.906 59.875 546.094 60.375C545.281 60.8594 544.281 61.6484 543.094 62.7422C542.75 63.0547 541.164 64.6562 538.336 67.5469L533.484 72.375ZM565.828 67.8984C569.078 67.8984 571.688 69.1328 573.656 71.6016C575.328 73.7109 576.164 76.1328 576.164 78.8672C576.164 80.7891 575.703 82.7344 574.781 84.7031C573.859 86.6719 572.586 88.1562 570.961 89.1562C569.352 90.1562 567.555 90.6562 565.57 90.6562C562.336 90.6562 559.766 89.3672 557.859 86.7891C556.25 84.6172 555.445 82.1797 555.445 79.4766C555.445 77.5078 555.93 75.5547 556.898 73.6172C557.883 71.6641 559.172 70.2266 560.766 69.3047C562.359 68.3672 564.047 67.8984 565.828 67.8984ZM565.102 69.4219C564.273 69.4219 563.438 69.6719 562.594 70.1719C561.766 70.6562 561.094 71.5156 560.578 72.75C560.062 73.9844 559.805 75.5703 559.805 77.5078C559.805 80.6328 560.422 83.3281 561.656 85.5938C562.906 87.8594 564.547 88.9922 566.578 88.9922C568.094 88.9922 569.344 88.3672 570.328 87.1172C571.312 85.8672 571.805 83.7188 571.805 80.6719C571.805 76.8594 570.984 73.8594 569.344 71.6719C568.234 70.1719 566.82 69.4219 565.102 69.4219ZM585.609 67.8984V72.7266C587.406 69.5078 589.25 67.8984 591.141 67.8984C592 67.8984 592.711 68.1641 593.273 68.6953C593.836 69.2109 594.117 69.8125 594.117 70.5C594.117 71.1094 593.914 71.625 593.508 72.0469C593.102 72.4688 592.617 72.6797 592.055 72.6797C591.508 72.6797 590.891 72.4141 590.203 71.8828C589.531 71.3359 589.031 71.0625 588.703 71.0625C588.422 71.0625 588.117 71.2188 587.789 71.5312C587.086 72.1719 586.359 73.2266 585.609 74.6953V84.9844C585.609 86.1719 585.758 87.0703 586.055 87.6797C586.258 88.1016 586.617 88.4531 587.133 88.7344C587.648 89.0156 588.391 89.1562 589.359 89.1562V90H578.367V89.1562C579.461 89.1562 580.273 88.9844 580.805 88.6406C581.195 88.3906 581.469 87.9922 581.625 87.4453C581.703 87.1797 581.742 86.4219 581.742 85.1719V76.8516C581.742 74.3516 581.688 72.8672 581.578 72.3984C581.484 71.9141 581.297 71.5625 581.016 71.3438C580.75 71.125 580.414 71.0156 580.008 71.0156C579.523 71.0156 578.977 71.1328 578.367 71.3672L578.133 70.5234L584.625 67.8984H585.609ZM598.922 76.6172C598.906 79.8047 599.68 82.3047 601.242 84.1172C602.805 85.9297 604.641 86.8359 606.75 86.8359C608.156 86.8359 609.375 86.4531 610.406 85.6875C611.453 84.9062 612.328 83.5781 613.031 81.7031L613.758 82.1719C613.43 84.3125 612.477 86.2656 610.898 88.0312C609.32 89.7812 607.344 90.6562 604.969 90.6562C602.391 90.6562 600.18 89.6562 598.336 87.6562C596.508 85.6406 595.594 82.9375 595.594 79.5469C595.594 75.875 596.531 73.0156 598.406 70.9688C600.297 68.9062 602.664 67.875 605.508 67.875C607.914 67.875 609.891 68.6719 611.438 70.2656C612.984 71.8438 613.758 73.9609 613.758 76.6172H598.922ZM598.922 75.2578H608.859C608.781 73.8828 608.617 72.9141 608.367 72.3516C607.977 71.4766 607.391 70.7891 606.609 70.2891C605.844 69.7891 605.039 69.5391 604.195 69.5391C602.898 69.5391 601.734 70.0469 600.703 71.0625C599.688 72.0625 599.094 73.4609 598.922 75.2578ZM628.805 86.9062C626.602 88.6094 625.219 89.5938 624.656 89.8594C623.812 90.25 622.914 90.4453 621.961 90.4453C620.477 90.4453 619.25 89.9375 618.281 88.9219C617.328 87.9062 616.852 86.5703 616.852 84.9141C616.852 83.8672 617.086 82.9609 617.555 82.1953C618.195 81.1328 619.305 80.1328 620.883 79.1953C622.477 78.2578 625.117 77.1172 628.805 75.7734V74.9297C628.805 72.7891 628.461 71.3203 627.773 70.5234C627.102 69.7266 626.117 69.3281 624.82 69.3281C623.836 69.3281 623.055 69.5938 622.477 70.125C621.883 70.6562 621.586 71.2656 621.586 71.9531L621.633 73.3125C621.633 74.0312 621.445 74.5859 621.07 74.9766C620.711 75.3672 620.234 75.5625 619.641 75.5625C619.062 75.5625 618.586 75.3594 618.211 74.9531C617.852 74.5469 617.672 73.9922 617.672 73.2891C617.672 71.9453 618.359 70.7109 619.734 69.5859C621.109 68.4609 623.039 67.8984 625.523 67.8984C627.43 67.8984 628.992 68.2188 630.211 68.8594C631.133 69.3438 631.812 70.1016 632.25 71.1328C632.531 71.8047 632.672 73.1797 632.672 75.2578V82.5469C632.672 84.5938 632.711 85.8516 632.789 86.3203C632.867 86.7734 632.992 87.0781 633.164 87.2344C633.352 87.3906 633.562 87.4688 633.797 87.4688C634.047 87.4688 634.266 87.4141 634.453 87.3047C634.781 87.1016 635.414 86.5312 636.352 85.5938V86.9062C634.602 89.25 632.93 90.4219 631.336 90.4219C630.57 90.4219 629.961 90.1562 629.508 89.625C629.055 89.0938 628.82 88.1875 628.805 86.9062ZM628.805 85.3828V77.2031C626.445 78.1406 624.922 78.8047 624.234 79.1953C623 79.8828 622.117 80.6016 621.586 81.3516C621.055 82.1016 620.789 82.9219 620.789 83.8125C620.789 84.9375 621.125 85.875 621.797 86.625C622.469 87.3594 623.242 87.7266 624.117 87.7266C625.305 87.7266 626.867 86.9453 628.805 85.3828ZM644.227 72.4453C646.742 69.4141 649.141 67.8984 651.422 67.8984C652.594 67.8984 653.602 68.1953 654.445 68.7891C655.289 69.3672 655.961 70.3281 656.461 71.6719C656.805 72.6094 656.977 74.0469 656.977 75.9844V85.1484C656.977 86.5078 657.086 87.4297 657.305 87.9141C657.477 88.3047 657.75 88.6094 658.125 88.8281C658.516 89.0469 659.227 89.1562 660.258 89.1562V90H649.641V89.1562H650.086C651.086 89.1562 651.781 89.0078 652.172 88.7109C652.578 88.3984 652.859 87.9453 653.016 87.3516C653.078 87.1172 653.109 86.3828 653.109 85.1484V76.3594C653.109 74.4062 652.852 72.9922 652.336 72.1172C651.836 71.2266 650.984 70.7812 649.781 70.7812C647.922 70.7812 646.07 71.7969 644.227 73.8281V85.1484C644.227 86.6016 644.312 87.5 644.484 87.8438C644.703 88.2969 645 88.6328 645.375 88.8516C645.766 89.0547 646.547 89.1562 647.719 89.1562V90H637.102V89.1562H637.57C638.664 89.1562 639.398 88.8828 639.773 88.3359C640.164 87.7734 640.359 86.7109 640.359 85.1484V77.1797C640.359 74.6016 640.297 73.0312 640.172 72.4688C640.062 71.9062 639.883 71.5234 639.633 71.3203C639.398 71.1172 639.078 71.0156 638.672 71.0156C638.234 71.0156 637.711 71.1328 637.102 71.3672L636.75 70.5234L643.219 67.8984H644.227V72.4453ZM692.109 90L679.828 63.2578V84.4922C679.828 86.4453 680.039 87.6641 680.461 88.1484C681.039 88.8047 681.953 89.1328 683.203 89.1328H684.328V90H673.266V89.1328H674.391C675.734 89.1328 676.688 88.7266 677.25 87.9141C677.594 87.4141 677.766 86.2734 677.766 84.4922V63.7266C677.766 62.3203 677.609 61.3047 677.297 60.6797C677.078 60.2266 676.672 59.8516 676.078 59.5547C675.5 59.2422 674.562 59.0859 673.266 59.0859V58.2188H682.266L693.797 83.0859L705.141 58.2188H714.141V59.0859H713.039C711.68 59.0859 710.719 59.4922 710.156 60.3047C709.812 60.8047 709.641 61.9453 709.641 63.7266V84.4922C709.641 86.4453 709.859 87.6641 710.297 88.1484C710.875 88.8047 711.789 89.1328 713.039 89.1328H714.141V90H700.641V89.1328H701.766C703.125 89.1328 704.078 88.7266 704.625 87.9141C704.969 87.4141 705.141 86.2734 705.141 84.4922V63.2578L692.883 90H692.109ZM720.281 76.6172C720.266 79.8047 721.039 82.3047 722.602 84.1172C724.164 85.9297 726 86.8359 728.109 86.8359C729.516 86.8359 730.734 86.4531 731.766 85.6875C732.812 84.9062 733.688 83.5781 734.391 81.7031L735.117 82.1719C734.789 84.3125 733.836 86.2656 732.258 88.0312C730.68 89.7812 728.703 90.6562 726.328 90.6562C723.75 90.6562 721.539 89.6562 719.695 87.6562C717.867 85.6406 716.953 82.9375 716.953 79.5469C716.953 75.875 717.891 73.0156 719.766 70.9688C721.656 68.9062 724.023 67.875 726.867 67.875C729.273 67.875 731.25 68.6719 732.797 70.2656C734.344 71.8438 735.117 73.9609 735.117 76.6172H720.281ZM720.281 75.2578H730.219C730.141 73.8828 729.977 72.9141 729.727 72.3516C729.336 71.4766 728.75 70.7891 727.969 70.2891C727.203 69.7891 726.398 69.5391 725.555 69.5391C724.258 69.5391 723.094 70.0469 722.062 71.0625C721.047 72.0625 720.453 73.4609 720.281 75.2578ZM753.164 87.5859C752.117 88.6797 751.094 89.4688 750.094 89.9531C749.094 90.4219 748.016 90.6562 746.859 90.6562C744.516 90.6562 742.469 89.6797 740.719 87.7266C738.969 85.7578 738.094 83.2344 738.094 80.1562C738.094 77.0781 739.062 74.2656 741 71.7188C742.938 69.1562 745.43 67.875 748.477 67.875C750.367 67.875 751.93 68.4766 753.164 69.6797V65.7188C753.164 63.2656 753.102 61.7578 752.977 61.1953C752.867 60.6328 752.688 60.25 752.438 60.0469C752.188 59.8438 751.875 59.7422 751.5 59.7422C751.094 59.7422 750.555 59.8672 749.883 60.1172L749.578 59.2969L755.977 56.6719H757.031V81.4922C757.031 84.0078 757.086 85.5469 757.195 86.1094C757.32 86.6562 757.508 87.0391 757.758 87.2578C758.023 87.4766 758.328 87.5859 758.672 87.5859C759.094 87.5859 759.656 87.4531 760.359 87.1875L760.617 88.0078L754.242 90.6562H753.164V87.5859ZM753.164 85.9453V74.8828C753.07 73.8203 752.789 72.8516 752.32 71.9766C751.852 71.1016 751.227 70.4453 750.445 70.0078C749.68 69.5547 748.93 69.3281 748.195 69.3281C746.82 69.3281 745.594 69.9453 744.516 71.1797C743.094 72.8047 742.383 75.1797 742.383 78.3047C742.383 81.4609 743.07 83.8828 744.445 85.5703C745.82 87.2422 747.352 88.0781 749.039 88.0781C750.461 88.0781 751.836 87.3672 753.164 85.9453ZM767.461 56.6719C768.117 56.6719 768.672 56.9062 769.125 57.375C769.594 57.8281 769.828 58.3828 769.828 59.0391C769.828 59.6953 769.594 60.2578 769.125 60.7266C768.672 61.1953 768.117 61.4297 767.461 61.4297C766.805 61.4297 766.242 61.1953 765.773 60.7266C765.305 60.2578 765.07 59.6953 765.07 59.0391C765.07 58.3828 765.297 57.8281 765.75 57.375C766.219 56.9062 766.789 56.6719 767.461 56.6719ZM769.406 67.8984V85.1484C769.406 86.4922 769.5 87.3906 769.688 87.8438C769.891 88.2812 770.18 88.6094 770.555 88.8281C770.945 89.0469 771.648 89.1562 772.664 89.1562V90H762.234V89.1562C763.281 89.1562 763.984 89.0547 764.344 88.8516C764.703 88.6484 764.984 88.3125 765.188 87.8438C765.406 87.375 765.516 86.4766 765.516 85.1484V76.875C765.516 74.5469 765.445 73.0391 765.305 72.3516C765.195 71.8516 765.023 71.5078 764.789 71.3203C764.555 71.1172 764.234 71.0156 763.828 71.0156C763.391 71.0156 762.859 71.1328 762.234 71.3672L761.906 70.5234L768.375 67.8984H769.406ZM793.594 81.8438C793.016 84.6719 791.883 86.8516 790.195 88.3828C788.508 89.8984 786.641 90.6562 784.594 90.6562C782.156 90.6562 780.031 89.6328 778.219 87.5859C776.406 85.5391 775.5 82.7734 775.5 79.2891C775.5 75.9141 776.5 73.1719 778.5 71.0625C780.516 68.9531 782.93 67.8984 785.742 67.8984C787.852 67.8984 789.586 68.4609 790.945 69.5859C792.305 70.6953 792.984 71.8516 792.984 73.0547C792.984 73.6484 792.789 74.1328 792.398 74.5078C792.023 74.8672 791.492 75.0469 790.805 75.0469C789.883 75.0469 789.188 74.75 788.719 74.1562C788.453 73.8281 788.273 73.2031 788.18 72.2812C788.102 71.3594 787.789 70.6562 787.242 70.1719C786.695 69.7031 785.938 69.4688 784.969 69.4688C783.406 69.4688 782.148 70.0469 781.195 71.2031C779.93 72.7344 779.297 74.7578 779.297 77.2734C779.297 79.8359 779.922 82.1016 781.172 84.0703C782.438 86.0234 784.141 87 786.281 87C787.812 87 789.188 86.4766 790.406 85.4297C791.266 84.7109 792.102 83.4062 792.914 81.5156L793.594 81.8438ZM802.148 56.6719C802.805 56.6719 803.359 56.9062 803.812 57.375C804.281 57.8281 804.516 58.3828 804.516 59.0391C804.516 59.6953 804.281 60.2578 803.812 60.7266C803.359 61.1953 802.805 61.4297 802.148 61.4297C801.492 61.4297 800.93 61.1953 800.461 60.7266C799.992 60.2578 799.758 59.6953 799.758 59.0391C799.758 58.3828 799.984 57.8281 800.438 57.375C800.906 56.9062 801.477 56.6719 802.148 56.6719ZM804.094 67.8984V85.1484C804.094 86.4922 804.188 87.3906 804.375 87.8438C804.578 88.2812 804.867 88.6094 805.242 88.8281C805.633 89.0469 806.336 89.1562 807.352 89.1562V90H796.922V89.1562C797.969 89.1562 798.672 89.0547 799.031 88.8516C799.391 88.6484 799.672 88.3125 799.875 87.8438C800.094 87.375 800.203 86.4766 800.203 85.1484V76.875C800.203 74.5469 800.133 73.0391 799.992 72.3516C799.883 71.8516 799.711 71.5078 799.477 71.3203C799.242 71.1172 798.922 71.0156 798.516 71.0156C798.078 71.0156 797.547 71.1328 796.922 71.3672L796.594 70.5234L803.062 67.8984H804.094ZM816.305 72.4453C818.82 69.4141 821.219 67.8984 823.5 67.8984C824.672 67.8984 825.68 68.1953 826.523 68.7891C827.367 69.3672 828.039 70.3281 828.539 71.6719C828.883 72.6094 829.055 74.0469 829.055 75.9844V85.1484C829.055 86.5078 829.164 87.4297 829.383 87.9141C829.555 88.3047 829.828 88.6094 830.203 88.8281C830.594 89.0469 831.305 89.1562 832.336 89.1562V90H821.719V89.1562H822.164C823.164 89.1562 823.859 89.0078 824.25 88.7109C824.656 88.3984 824.938 87.9453 825.094 87.3516C825.156 87.1172 825.188 86.3828 825.188 85.1484V76.3594C825.188 74.4062 824.93 72.9922 824.414 72.1172C823.914 71.2266 823.062 70.7812 821.859 70.7812C820 70.7812 818.148 71.7969 816.305 73.8281V85.1484C816.305 86.6016 816.391 87.5 816.562 87.8438C816.781 88.2969 817.078 88.6328 817.453 88.8516C817.844 89.0547 818.625 89.1562 819.797 89.1562V90H809.18V89.1562H809.648C810.742 89.1562 811.477 88.8828 811.852 88.3359C812.242 87.7734 812.438 86.7109 812.438 85.1484V77.1797C812.438 74.6016 812.375 73.0312 812.25 72.4688C812.141 71.9062 811.961 71.5234 811.711 71.3203C811.477 71.1172 811.156 71.0156 810.75 71.0156C810.312 71.0156 809.789 71.1328 809.18 71.3672L808.828 70.5234L815.297 67.8984H816.305V72.4453ZM837.656 76.6172C837.641 79.8047 838.414 82.3047 839.977 84.1172C841.539 85.9297 843.375 86.8359 845.484 86.8359C846.891 86.8359 848.109 86.4531 849.141 85.6875C850.188 84.9062 851.062 83.5781 851.766 81.7031L852.492 82.1719C852.164 84.3125 851.211 86.2656 849.633 88.0312C848.055 89.7812 846.078 90.6562 843.703 90.6562C841.125 90.6562 838.914 89.6562 837.07 87.6562C835.242 85.6406 834.328 82.9375 834.328 79.5469C834.328 75.875 835.266 73.0156 837.141 70.9688C839.031 68.9062 841.398 67.875 844.242 67.875C846.648 67.875 848.625 68.6719 850.172 70.2656C851.719 71.8438 852.492 73.9609 852.492 76.6172H837.656ZM837.656 75.2578H847.594C847.516 73.8828 847.352 72.9141 847.102 72.3516C846.711 71.4766 846.125 70.7891 845.344 70.2891C844.578 69.7891 843.773 69.5391 842.93 69.5391C841.633 69.5391 840.469 70.0469 839.438 71.0625C838.422 72.0625 837.828 73.4609 837.656 75.2578Z" fill="white"/>
</svg>
