<svg xmlns="http://www.w3.org/2000/svg" width="430" height="430" fill="none" viewBox="0 0 430 430"><g stroke-linecap="round" stroke-linejoin="round" stroke-miterlimit="10" stroke-width="6"><path stroke="#121331" d="m255.4 285.9-7.8 6.8c-19 16.4-47.1 16.4-66 0l-7.8-6.8m91-242.9c-9.2 57.2 20.5 132.7 33.4 161.8 2.5 5.7 5.4 11.2 8.4 16.6 3.4 6.1 5.3 13.2 5.4 20.6.4 24.6-19.6 45.2-44.2 45.4-4.3 0-8.5-.5-12.5-1.7m-81.6.2c-4 1.1-8.2 1.7-12.5 1.7-24.6-.3-44.6-21-44.2-45.5.1-7.5 2.1-14.5 5.4-20.6 3-5.5 5.9-10.9 8.4-16.6 12.9-29.2 42.6-104.7 33.4-161.9"/><path stroke="#121331" d="M173.7 285.9s-20.5-17.9-20.5-45.5m102.2 45.5s20.5-17.9 20.5-45.5"/><path stroke="#6a4c2d" d="M242.4 362.6c0 13.5 10.9 24.4 24.4 24.4s24.4-10.9 24.4-24.4-24.4-51.7-24.4-51.7-24.4 38.2-24.4 51.7"/></g></svg>